<svg id="Camada_1" data-name="Camada 1" xmlns="http://www.w3.org/2000/svg" viewBox="0 0 1927.63 863.06"><defs><style>.cls-1,.cls-34{fill:#001b26;}.cls-1{stroke:#ff3051;stroke-miterlimit:10;stroke-width:15px;}.cls-2{fill:#ff3051;}.cls-3{fill:#6ec7ff;}.cls-4{fill:#3e9bd6;}.cls-5{fill:#fff;}.cls-6{fill:#6dc5fc;}.cls-7{fill:#6dc6fe;}.cls-8{fill:#fefeff;}.cls-9{fill:#fefefe;}.cls-10{fill:#fcfeff;}.cls-11{fill:#3f9ad5;}.cls-12{fill:#fcfefe;}.cls-13{fill:#fefdfe;}.cls-14{fill:#fdfdfd;}.cls-15{fill:#fbfafb;}.cls-16{fill:#3e9ad4;}.cls-17{fill:#3b96d0;}.cls-18{fill:#bae0f4;}.cls-19{fill:#9a2955;}.cls-20{fill:#e4b7ca;}.cls-21{fill:#592444;}.cls-22{fill:#408ab3;}.cls-23{fill:#72264b;}.cls-24{fill:#c68aa6;}.cls-25{fill:#a02a57;}.cls-26{fill:#21546f;}.cls-27{fill:#3c7693;}.cls-28{fill:#e1306c;}.cls-29{fill:#802547;}.cls-30{fill:#3d9ac9;}.cls-31{fill:#f9fafa;}.cls-32{fill:#f9fbfb;}.cls-33{fill:#f8fafa;}.cls-35{fill:#265470;}.cls-36{fill:#40799e;}.cls-37{fill:#3e96c2;}.cls-38{fill:#f2f4f5;}.cls-39{fill:#cee2e4;}</style></defs><path class="cls-1" d="M76.55,926.1c14.61-3.49,29.57-4.84,44.39-7,39.46-5.75,79-11.18,118.47-16.67a21.32,21.32,0,0,0,9.7-4.34c30.69-22.09,65.26-32.38,102.78-33.55,20.45-.64,40.79.4,60.91,4.37,2.38.46,4.59,1,7-.15,8.34-4,16.75-7.83,25.07-12.63-52.43-4.32-104.93-5.83-157.3-9.53-17-2.86-26.77-17.66-22.38-34.87,1.06-4.17-.23-6.12-3.05-8.17q-69.88-4.72-139.77-9.46c-30.16-2.08-60.3-4.33-90.45-6.55-3.25-.24-6.64.1-9.58-1.83s-6.44-3-8.83-5.74c-6.16-7.08-12.07-14.43-9-24.68,3.53-11.63,10.88-19.62,23.31-22,13-2.49,26.3-2.28,39.45-3.28,39.49-3,79-5.28,118.54-8,46.69-3.24,93.36-6.76,140-10,39.21-2.73,78.43-5.24,117.65-7.86,9-.6,18-1.31,26.95-1.82,3.3-.19,5.58-.86,6.31-4.78a292.06,292.06,0,0,1,37.82-99.56,13.93,13.93,0,0,0,.85-3.12c-8.52-.65-16.75-1.45-25-1.87-19.18-1-38.37-1.62-57.55-2.64-38.05-2-76.09-4.26-114.15-6.28-19.77-1-39.57-1.8-59.35-2.68-3.29-.15-6.64.18-9.72-1.37-12.18-3.77-22.54-16.72-21.8-27.26.91-13.07,12.25-24.25,26.47-26.06a5.83,5.83,0,0,0,2.5-.79c20.33-1.22,40.66-2.53,61-3.64q64.62-3.54,129.25-6.92c4.49-.24,9-.41,13.47-.61,4.74-3.65-.54-3.89-1.9-4.85-12.83-9.11-16.45-23.55-8.84-36.91,4.79-8.41,12.86-11.91,21.89-13.74q54.88-2.93,109.77-5.86c52.47-2.88,105-5.62,157.4-8.95,10.09-.64,20-3.9,30-5.72,49.45-9,99.12-9.37,148.95-3.65,14.33,1.65,28.45,4.35,42.57,7.31,13.81,2.91,22.92,10.16,28.61,23.24a672.18,672.18,0,0,0,45.29,86.06c.8,1.27,1.65,2.51,2.37,3.83,2,3.66,4.08,4.94,8.59,2.82C1068,547.6,1092,541,1116.84,537.45c48.62-6.94,95.19-.5,139.26,21.73,7.49,3.78,13.13,9.37,16,17.5,1.91,5.44,2.08,5.51,7.27,3,27.51-13.23,56.52-21.68,86.32-28,14.35-3.06,26.41-.92,37.76,8.6,9.89,8.3,21,15,31.94,21.91,2.86,1.83,5.43,3,9.16,1.89,30-8.92,59.44-19.2,87.5-33.19,4.25-2.12,5.33-4.14,3.77-9-12.07-37.48-2.38-71,19.57-102,3.93-5.54,6.44-10.87,7.36-17.77,3-22.84,14.89-40.33,35-51.77,35.49-20.23,85.71-15,116.53,12,9.11,7.95,16.33,17.45,23.67,27,7,9.2,18.17,14.71,25.07,24.35,3.32,4.62,5.54,10.7,9.92,13.68s11.07.9,16.74,1.85c7.78,1.3,15.38,3.07,22.43,6.42a31.79,31.79,0,0,0,15.66,2.95c13.61-.6,27,.54,39.87,5.51a77.15,77.15,0,0,1,39.85,33.62c15.14,25.64,11.85,60.83-17.91,83.42a95.11,95.11,0,0,1-20.08,12,15.66,15.66,0,0,0-7.85,6.93c-21.38,37-54.42,54.57-96.27,57.13-7.46.45-15.52-1.27-22.29,1-6.47,2.17-11.54,8.38-17.37,12.59-20.56,14.87-42.57,27.06-66.48,35.67-3.85,1.39-6.5,2.86-7.39,7.66-5.51,29.84-24.45,48.6-51.17,60.72-16.58,7.52-34.3,10.81-52,14.18-34.8,6.63-69.6,13.35-103.56,23.62-43.69,13.22-85.31,30.72-121.82,58.88-29.67,22.9-52.13,51.21-66.25,86.07-6.94,17.12-15.12,22.31-33.93,22.31H90.8c-4.82,0-9.63.06-14.25-1.59C63.94,973.25,56.81,964,56.73,952.66,56.64,940.67,63.48,931.5,76.55,926.1Z" transform="translate(3.81 -124.34)"/><path class="cls-1" d="M1029.55,330.45c28.89-.39,52.1,8.71,73.08,23.62,16.34,11.61,17.46,32.59,3.18,44.76-3.77,3.21-8.2,4.89-12.9,6-4.37,1.07-8.77,2-13.09,3.23a76.81,76.81,0,0,0-33.2,19A52.67,52.67,0,0,1,957,386.66c1.15-19.73,10.71-34.79,27.77-44.6C999.32,333.66,1015.29,329.92,1029.55,330.45Z" transform="translate(3.81 -124.34)"/><path class="cls-1" d="M1178.2,253.29c0-33.54,30.58-58.95,63.83-53,35.51,6.29,60,27.38,77.33,57.87a97.74,97.74,0,0,1,9.26,21.47c3.11,10.85.45,20.4-7.55,28.05s-17.89,9.53-28.42,5.79c-8.77-3.11-17.28-6.82-26.58-8.38a68.11,68.11,0,0,0-23.27-.25c-20.12,3.48-37.44-1.65-51.42-17A49.62,49.62,0,0,1,1178.2,253.29Z" transform="translate(3.81 -124.34)"/><path class="cls-1" d="M1310.28,338.33A98.19,98.19,0,0,1,1360,352a124.42,124.42,0,0,1,45.5,46.34c10.22,18.07.06,38.46-20,41.78-4.93.82-9.56-.51-14.22-1.41-10.07-1.94-20.1-2.82-30.35-1.54-7.24.9-13.89,3.62-20.78,5.64-31.07,9.11-63.69-12.53-67.32-44.59-3.42-30.16,19.92-58,50.32-59.88C1305.47,338.2,1307.88,338.33,1310.28,338.33Z" transform="translate(3.81 -124.34)"/><path class="cls-1" d="M1507.47,379.7c-.8,6.6-.48,12-1.94,17.32-3,10.76-9.51,17.94-20.41,20.65s-20.07-.85-27.52-9c-2.23-2.44-4.12-5.17-6.28-7.66a87.19,87.19,0,0,0-36.7-25.06c-27.32-10.08-41.17-38.77-32.59-65.66,11.16-35,54.41-48.62,83.74-26.05,25.19,19.38,38.66,45.34,41,77C1507.28,367.77,1508.69,374.34,1507.47,379.7Z" transform="translate(3.81 -124.34)"/><path class="cls-2" d="M1024.76,638C1008,664.9,991,691.71,972.62,717.6c-19.94,28.12-40.72,55.56-64.47,80.64-1.77.37-2.65-.16-2.12-2.11,6-16.69,11.55-33.55,13.55-51.23,4.35-38.47.38-75.66-19.74-109.7-19-32.16-47.91-50.07-84.51-55-43.11-5.83-82.88,4.5-119.28,27.91-27.78,17.87-46.27,42.14-51.89,75.58-3,17.78-6.55,35.43-6.33,53.54a84.8,84.8,0,0,0,5.1,29.13c5.49,14.56,13.59,20.23,29.2,20.72,43.57,1.36,77.27-20.51,93.92-60.85,3.68-8.93,6-18.22,8.21-27.58,1-4.46,0-8-3.1-11.52-15.44-17.62-37.29-20.47-56.58-7.13-7.76,5.37-13.81,12.4-19.58,19.77a9.07,9.07,0,0,0-1.43,9.32c3.67,9.6,10.62,15.69,20.69,18,.33.08.86-.69,1.3-1.07a5.93,5.93,0,0,0,.19-2.64c-2.28-8.36-2-16,6.21-21.24,9.6-6.06,19.58-10.23,31-5.24a6.38,6.38,0,0,1,3.69,3.65c-3.21,15.17-8.78,29.36-18.47,41.59-17.74,22.39-41.59,30.34-69.36,28.79-3.81-.22-6-2.39-7.82-5.27-3.36-5.47-4.78-11.55-5.78-17.85-1.69-10.5-.9-21,.33-31.36,2-17,4.66-33.84,10.68-50,1.08-1,.8-2.71,1.75-3.82l-.08.08c1.72-1.68,2.48-4,3.65-6,2.21-2,3.68-4.57,5.3-7,20.57-25.45,49.14-33.91,79.93-38,17.43-2.34,34.63-2.6,51.76,2.08,27,7.37,45.09,24.39,54,50.74,10.46,31,7.76,62.25-1,93.08-15.13,53.52-43.62,99.79-78.5,142.5-5.29,6.48-11.32,12.34-16.11,19.25-23.22,7.11-46.54,13.09-71.25,12-16.49-.74-33-.45-49.55-.07-26.8.61-50-9.1-70.75-24.88-22.79-17.32-37.05-40.56-44.31-68.17a354.46,354.46,0,0,1-11.57-71.78c-2.27-43.69,4.38-85.46,23.55-125,17.11-35.34,42.34-63.87,73.16-87.76C663,517.45,716,495.31,773.76,484.17c35-6.73,70.29-8.57,105.78-6.69,11.94.64,24,1.33,35.76,3.78,7.66,10.18,12.53,21.66,15.75,33.9-12.18,4.09-22.55,11.12-31.95,19.73-.19,3-.19,3,3.47,1.72,11.23-3.8,22.52-7.4,34.43-8.49,8.49,7.86,11.77,18.86,17.19,28.57-12.41,5.42-21.88,14.42-30.2,24.81-.72,2.2.23,2.77,2.25,2.29,11.12-5.45,22-11.42,34.28-14.13,7.73,7.47,15,15.27,18.16,25.93a81.24,81.24,0,0,0-30.3,33.46c13.07-8.16,26-16.37,40.56-21.59C995.5,608.77,998,615,1002.3,619,1009.58,625.57,1018.58,630.12,1024.76,638Z" transform="translate(3.81 -124.34)"/><path class="cls-3" d="M1598.4,569.2c7.95-.8,16.21,1.57,24.1-2.3-1.81-2.07-4.23-2.39-6.32-3.25-36.75-15.15-53.54-65.52-17.35-103.54,4.61-4.84,10.12-5.68,16.83-4.31-1.59-5.69-4.15-10.11-5.08-15.12a32.79,32.79,0,0,1-.26-12.48c2.82-14.42,10.58-21.52,26.67-23.57,24.29-3.11,43.5,5.51,57.29,25.85,6.14,9,9.73,19.2,12.45,29.71.42,1.63-.08,3.74,2.42,4.74,3.92-2.7,3.45-7.82,5.67-11.47,18.81,10.76,24.76,30.8,16.7,57.18,4,0,6.75-2.18,9.62-4.05,1.39-.91,2.56-2.89,4.53-1s2.75,3.77,1.18,6.37a23.72,23.72,0,0,1-5.24,6.12c-5.4,4.44-11.65,7.26-18.21,9.55-4.06,1.42-7,.2-9.39-3-3.67-4.91-5.48-10.61-7-16.43-3-11.35-3.6-23.08-5.16-34.65-2.06-15.34-8.6-28.64-17.45-40.94-10.34-14.37-24.21-18.92-42.06-14.91-10.47,2.36-16.22,9.61-18.64,19.77,1.92,6,1.22,12.07.43,18.14h0a2.43,2.43,0,0,0-1.58,2.06c-13.27,13.58-22.77,29.15-26.45,48.09-4,20.68,3.41,32.89,23.64,38.37,9.92,2.69,20.1,3.23,30.21,4.42a91.47,91.47,0,0,1,20.09,4.65c7.19,2.55,12.45,7.09,14.33,15.22-5.83,3.26-12.21,4.3-18.79,4.61-.28.1-.58.31-.85.27-21.39-3.11-38.36,7.63-56.11,17-36,19.1-72.59,36.94-111.3,50.05a2.34,2.34,0,0,0-1.26,1.15l-12.14,4.31c3.09,2.5,6.36,2.44,9.46,2.57a162.53,162.53,0,0,0,28.55-1.08c9.08-1.2,18.36,1.26,27.42,3,11.81,2.24,23.17,6,33.21,12.7,8,5.37,15.21,11.61,17.9,21.5,3.39,12-2.83,20.26-11.08,27.28-8.67,7.38-19.32,10.84-30.37,12.8-34.86,6.2-70,10.61-104.68,18-46.57,10-91.86,23.7-134.46,45.23-40.46,20.45-75.65,47.6-103,84.08a215,215,0,0,0-28,49.15c-1.52,3.79-2.27,8.26-6.68,10.24-2.7.09-5.4.26-8.1.26H829.11c-.05-.35-.09-.7-.14-1,8-3,16.12-5.77,24-9,81.59-33.77,146.88-87.88,198.34-159.19,15.31-21.2,31-42.12,48.51-61.56,2-2.21,3.66-4.78,6.37-6.28,25.86,1.85,51.73,3.5,77.57,5.58a7.94,7.94,0,0,1,5.61,2.41q-8.33,16.26-16.64,32.51c-.79,1.07-.46,2.63-1.56,3.57v0c-11.17,24.36-21.14,49.06-21,76.51.13,26.11,2.66,27.85,27.38,20.22,43.59-13.45,84.66-32.05,121.83-58.75-2.83-2-2.84-2.15-5.16-1.92-13.74,1.41-27.34,3.73-40.91,6.32-23.56,4.5-46.74,10.58-70.4,17.21-.69-8.38,1.38-15.89,2.83-23.39,7.64-39.35,23.35-74.88,49.77-105.47,25.31-29.3,57.55-47.67,93.47-60.38,9.3-3.29,18.61-6.76,28.53-7.93,12.43,7.23,23.89,16,36.7,22.6,17.32,8.94,35,16.63,54.56,19.36l9.22,2c.86-.11,1-.52.58-1.26-.27-.45-.4-.71-.53-.71-1.76-1.75-4.27-2.7-5.41-5.11,1.11-4.11,4.85-3.93,7.9-4.72,40.71-10.59,80-24.51,115.72-47.36C1584,580.74,1592.17,576.25,1598.4,569.2Z" transform="translate(3.81 -124.34)"/><path class="cls-4" d="M1182.11,931.26a241.33,241.33,0,0,1,33.27-61.41c16.18-21.49,35.39-39.78,57-55.71,29.45-21.72,62.1-37.15,96.23-49.91,38.56-14.42,78.59-23.06,118.84-30.73,23.44-4.46,47.17-7.44,70.74-11.26a70.37,70.37,0,0,0,25.93-9.5c10.66-6.56,15.61-16.14,16.33-28.3,10.1,22.77,1,34.62-13,42.71-13.51,7.79-28.68,10.27-43.68,13.21-45.3,8.85-90.63,17.54-134.45,32.55-44.59,15.28-86.63,35.32-123.19,65.63-28.81,23.88-52.12,52.19-68,86.25-2.37,5.08-5.15,7.2-10.8,6.84C1198.93,931.1,1190.51,931.35,1182.11,931.26Z" transform="translate(3.81 -124.34)"/><path class="cls-5" d="M767,919.36c-2.56-1.55-.88-2.94.22-4.25,4.83-5.74,9.81-11.36,14.55-17.18,30.75-37.67,56.51-78.27,72.48-124.55,8.68-25.17,13.93-50.89,12.13-77.69-1-14.49-4-28.49-10.71-41.52-11.16-21.79-29.11-35.51-52.91-39.24-36.81-5.77-72.34-1-104.86,18.74-8,4.87-14.83,11.18-21.08,18.12-1.5.35-2.51.26-1.53-1.66a107.46,107.46,0,0,1,48-38c21.23-8.76,43.34-14.15,66.44-14.29,49.6-.3,88.27,28.8,102.06,76.55,7.55,26.17,5.71,52.21-1,78.21-5.47,21.33-14,41.45-24.55,60.71A362.93,362.93,0,0,1,800,900.34C790.44,909.53,780.09,916.65,767,919.36Z" transform="translate(3.81 -124.34)"/><path class="cls-2" d="M1198.11,655.4a151.74,151.74,0,0,0,10.61-34.27c1.14-6.65,1-7.11-4.92-9.59-32.62-13.79-65.55-15.64-99-2.82-8.47,3.24-14.4,8.13-18.89,16.51-33.69,62.8-74.79,120.29-125.37,170.7-29.66,29.56-62,55.81-97.72,77.84a4.2,4.2,0,0,1-2,1.35,5.35,5.35,0,0,1-1.44.6,1.48,1.48,0,0,1-2.19-.12,181.28,181.28,0,0,1,30-33.36c27.22-23.82,50.73-51.16,72.82-79.74,37-47.86,69.29-98.82,99.15-151.37a21.29,21.29,0,0,1,1.55-2.12c11-6.68,23.51-9,35.76-11.75,38.56-8.69,77.22-11.2,115.88-.38,4.24,1.19,9,1.55,11.46,6.2-2.89,20.27-11.07,38.23-23.73,54.22C1198.33,657.7,1197.45,657.33,1198.11,655.4Z" transform="translate(3.81 -124.34)"/><path class="cls-5" d="M1704.19,539.14c-5.32,8.27-10.85,9.82-18.41,5.13-11.48-7.12-24.21-10.19-37.5-11.4-9-.82-18-1.29-26.64-4.06s-10.8-6-10.41-15.32c1.32-31.38,30.88-58.36,61.87-56.88,5.08.24,7.34,2.09,8.94,6.71,2.69,7.75,3.78,15.76,4.6,23.8,1.13,11.08,2.63,22.08,6.33,32.59,1.15,3.27.24,4.8-1.8,6.95-3.58,3.77-6.83,8.07-4,13.6,1.84,3.53,6.53,3,14.53-1.15C1702.54,538.7,1703.4,538.31,1704.19,539.14Z" transform="translate(3.81 -124.34)"/><path class="cls-6" d="M538.23,891.25c9.44,10.83,18.62,21.93,30.59,30.19,4.33,3,8.71,5.91,13.25,9-2.2,1.86-4.34,1.07-6.27,1.07q-132.75.07-265.51,0c-1.49,0-3-.21-4.47-.33,0-3.59,3-4.27,5.42-5.06,32.57-10.75,65.61-13.32,99.2-5.39a12.49,12.49,0,0,1,4.8,2.37l.44.28-.15.49c5.49.56,9.08-3.71,13.69-5.39a424,424,0,0,1,96.84-28.66C530.17,889.12,534.41,888.8,538.23,891.25Z" transform="translate(3.81 -124.34)"/><path class="cls-3" d="M1800.44,597.53c-18.73,12.14-39.46,12.61-60.65,10.35a10.78,10.78,0,0,1-1.76-.36c-7.08-1.93-13.48-1.29-18.44,4.84-30,24.56-64.71,39.85-101.69,50.44-3.48,1-6.92,2.26-10.45.25a11.14,11.14,0,0,1-4.32-4.47c.57-2.06,2.51-2.26,4.06-2.76,30.47-9.93,58.73-24.05,83.91-44,2.21-1.76,4.2-2.74,7.27-2.36,3.54.45,3.6,0,9.63-3.23-8.88-4.83-14.56-12.16-19.84-21.15,14.43-5.45,26.32-13.13,34.22-26.83,2.38,7.2,3.66,13.67,7.08,19.38,1.67,2.78,3.39,4.58,7.06,4.22,20.12-2,38.43,4.41,56.37,12.41,1.89.84,3.62,2.23,5.9,1.8C1800.68,595.05,1800.78,596.05,1800.44,597.53Z" transform="translate(3.81 -124.34)"/><path class="cls-4" d="M1299.38,776.48c-5.23,7.22-12.87,11.53-20.15,16.13-37.29,23.55-78,38.93-120.45,50.24-5.94,1.58-5.79,1.5-7.65-4.73-6.45-21.54-3-42.6,3-63.5,3.07-10.67,7.82-20.7,12.62-30.68,1-2.14,1.86-4.48,4.38-5.44-2,10.86-6.14,21.17-8,32.1a192.61,192.61,0,0,0-2.47,46.48c.46,6.45.7,6.53,7.06,5.36,34-6.23,66.31-17.9,98-31.37C1277,786.29,1288.17,781.34,1299.38,776.48Z" transform="translate(3.81 -124.34)"/><path class="cls-7" d="M1845.82,542.22a24,24,0,0,0,2.19-1.55c4.82-4.26,9.88-8.88,7.67-16-2.44-7.85-8.81-12-16.76-13.21a47.31,47.31,0,0,0-17,.84c-16.88,3.63-32.33,11-47.88,18-4.37,2-8.67,4.15-13.16,5.84-4.85,1.82-9.87,2.73-15.31-.44,11.71-10.11,24.38-19.86,16.32-38.88,13.37-4.88,25.74-3.13,38.46,3.78-3.15,4.48-7.41,7.58-9.27,13,2.61.67,4.44-.85,6.39-1.63,12.93-5.13,26.14-8.93,40.26-7.86,9.82.74,18.91,3.38,25.73,11.13,8.31,9.46,7.74,18.51-1.89,26.49-7.54,6.24-16.33,10-25.82,12.18-4.27,1-5.6-.72-4.41-4.77A21.82,21.82,0,0,1,1845.82,542.22Z" transform="translate(3.81 -124.34)"/><path class="cls-8" d="M1189.39,702.4c-13.76-.6-27.54-.93-41.28-1.88-12.83-.88-25.62-2.43-38.43-3.68a4,4,0,0,1-3.47-2.42c5-6,10.89-11,16.75-16.14,2.41-2.1,4.93-3.14,8.15-2.58a285.52,285.52,0,0,0,71.39,3.39c.78-.06,1.77-.37,2.6,1.52Z" transform="translate(3.81 -124.34)"/><path class="cls-9" d="M1223.74,603.08c-33.32-11.63-67.4-12.71-102-7.82a319.49,319.49,0,0,0-55,12.89c-1.93.64-3.92,1.64-6.1.85,2.39-7.42,7.65-11.33,14.94-13.92,45.29-16.13,90.88-19.79,137.11-4.33,2.27.76,4.5,1.61,6.71,2.53C1225.54,595.82,1225.53,595.84,1223.74,603.08Z" transform="translate(3.81 -124.34)"/><path class="cls-9" d="M1813,533.86c.69,10.14,2.11,20.56-3.26,30.4a44,44,0,0,1-8.83,11.23c-2.64,2.46-5.2,3.39-8.87,1.76A130,130,0,0,0,1745.19,566c-3.54-.17-4.7-1.93-5.32-4.75a16.37,16.37,0,0,1,0-8.62c4.61.67,9.06,2.58,13.78,2.23,2.13-.16,2.71,1.15,3.56,3,2.54,5.62,4,6.08,9.65,4.29a18.45,18.45,0,0,0,11.09-9.82c1-2,1.16-4.52,3.76-5.78,9.15-4.41,17.92-9.61,27.45-13.25A4.07,4.07,0,0,1,1813,533.86Z" transform="translate(3.81 -124.34)"/><path class="cls-10" d="M1598.4,569.2c2,2.26.71,3.53-1.22,5a279.91,279.91,0,0,1-37.86,24.16,406.54,406.54,0,0,1-102.58,37.73,24.36,24.36,0,0,0-4.11,1.72c-3-.9-5.14-2.75-7.14-6.11,5.68-1.7,11-3.3,16.36-4.88,32.22-9.53,63.71-20.93,93.67-36.29,10.94-5.62,21.7-11.61,31.35-19.27C1590.63,568.26,1594.18,567.73,1598.4,569.2Z" transform="translate(3.81 -124.34)"/><path class="cls-10" d="M415.24,923.12c-8.11.87-15.81-2-23.68-3-20.42-2.61-40.42-.93-60.36,3.12-8.72,1.76-17.41,3.76-25.38,8a132.23,132.23,0,0,1-22.07-.11l.31-1.22c15.22-10.12,32.29-15.2,50.08-18.08,26-4.22,51.8-1.67,77.42,3.57C417,916.48,417,916.59,415.24,923.12Z" transform="translate(3.81 -124.34)"/><path class="cls-11" d="M1496,641.47c4.35-5,11-5.72,16.5-8.37,12.92-6.2,26.36-11.31,39.35-17.39,23.56-11,47.7-21.15,69.64-35.16,10.73-6.85,21.12-9.66,33.31-8a106.34,106.34,0,0,0,10.73.43,9.4,9.4,0,0,1-6.94,1.19c-8.72-1.43-15.41,2.74-22.44,6.92-41.77,24.82-85.43,45.46-132.29,58.91C1501.31,640.73,1498.79,641.65,1496,641.47Z" transform="translate(3.81 -124.34)"/><path class="cls-12" d="M538.23,891.25c-31.11,2.41-60.47,12-89.69,22.09-6.8,2.36-13.53,4.94-20.28,7.41-2.08,1.09-3.72,1.37-3.51-1.85,13.76-8.56,28.82-14.4,43.68-20.62,18.2-7.61,36.71-14.41,55.2-21.26,3.89-1.45,6.07-1.13,7.78,2.73C533.23,883.83,536.78,886.92,538.23,891.25Z" transform="translate(3.81 -124.34)"/><path class="cls-10" d="M1448.77,642.88c-2.15,3.77-5.3,1.77-7.93,1.12-26.23-6.47-50.15-18-72.19-33.47-4-2.79-9.45-4.08-11.15-9.6a7,7,0,0,1,1.61-.78c18.91-3.77,12.78-5.44,28.3,6.05C1406.68,620.46,1426.59,633.54,1448.77,642.88Z" transform="translate(3.81 -124.34)"/><path class="cls-13" d="M931.05,515.16c-6.88-10.54-11.11-22.32-15.75-33.9l3.15.07.54.12c7.36,1.35,14.68,2.9,22.08,4,3.68.54,5.8,2.08,7.24,5.57,2.49,6,5.51,11.85,8.34,17.8Z" transform="translate(3.81 -124.34)"/><path class="cls-14" d="M1024.76,638c-14.2-7.52-25.72-18.17-35.82-30.51,1.65-.68,3.33-1.31,4.95-2.06,10.6-4.91,20.08-6.19,27.11,6.13,2.1,3.68,6.35,6.22,9.86,9,2.43,1.91,2.46,3.69.93,6.06C1029.38,630.33,1027.1,634.17,1024.76,638Z" transform="translate(3.81 -124.34)"/><path class="cls-13" d="M954.19,556.69c-2.27-.57-3.26-2.44-4.23-4.25-4.35-8.1-8.64-16.22-13-24.32,8-1.06,15.92-2.06,24-2,2.47,0,4.76.22,6.08,2.73,3.28,6.27,6.57,12.53,10.09,19.25C968.87,550.67,961.32,553.15,954.19,556.69Z" transform="translate(3.81 -124.34)"/><path class="cls-11" d="M1607.45,663.05a276.63,276.63,0,0,0,55.94-19.23c18.51-8.54,36.75-17.68,52.83-30.51.84-.67,2.23-.65,3.37-.95-7.46,9.23-17.36,15.55-26.92,22.19A221.52,221.52,0,0,1,1619.43,668C1612,669.87,1612,669.78,1607.45,663.05Z" transform="translate(3.81 -124.34)"/><path class="cls-14" d="M978.68,595.59c-6.37-8.42-12.75-16.83-18.16-25.93a146.29,146.29,0,0,1,21.81-5c2.7-.42,4.57-.15,6,2.31,3.69,6.07,7.51,12.08,11.68,18.76C992.25,588.48,985.53,592.16,978.68,595.59Z" transform="translate(3.81 -124.34)"/><path class="cls-15" d="M756.7,700.57c-11.89-6-22.88-3.57-33.52,3.38-4.37,2.85-6.56,6.41-6.37,11.77.11,3.42,1.23,7.14-1.25,10.32-.22-.55-.45-1.1-.66-1.66-2.34-6.3-7-13-2.7-19.37,5.53-8.14,13.08-14.8,23.23-16.94,8.23-1.74,15.16,1.43,21,7.14C758.19,696.89,758.66,698.69,756.7,700.57Z" transform="translate(3.81 -124.34)"/><path class="cls-16" d="M1624.11,455.55c-3.76-6-.8-12.08-.43-18.14.93,1.68,2.11,1.51,3.69.8a64.22,64.22,0,0,1,9.93-3.92c6.69-1.74,10.65,0,16.58,7.18C1642.49,443.69,1633.35,449.71,1624.11,455.55Z" transform="translate(3.81 -124.34)"/><path class="cls-17" d="M1845.82,542.22a43.43,43.43,0,0,1-14.47,7c-.95-5,.44-10.18-1.18-15.16-.73-2.27.84-3.23,2.76-3.73,5.38-1.39,10,1.36,11.58,6.79C1845,538.8,1844.41,540.77,1845.82,542.22Z" transform="translate(3.81 -124.34)"/><path class="cls-18" d="M424.75,918.9c.63,1.63,2.11,1.66,3.51,1.85-2.86,2.58-6.71,3-10,4.64-1.18.58-2.08-.48-2.72-1.5C419,922.92,421,919.4,424.75,918.9Z" transform="translate(3.81 -124.34)"/><path class="cls-19" d="M1198.11,655.4c.63.64,1.26,1.27,1.9,1.9a7.58,7.58,0,0,1-4.89,5C1194.72,659.25,1196.28,657.27,1198.11,655.4Z" transform="translate(3.81 -124.34)"/><path class="cls-20" d="M675.3,650.13l1.53,1.66c-1,2.77-3.06,4.69-5,6.73a2.54,2.54,0,0,1-.36-3.16C672.33,653.3,673.22,651.28,675.3,650.13Z" transform="translate(3.81 -124.34)"/><path class="cls-21" d="M926.24,583.79a5.61,5.61,0,0,1-1.11,1.33c-1.16.72-2.48,2.34-3.76,1s.35-2.59,1.19-3.67a5.9,5.9,0,0,1,1.43-1Z" transform="translate(3.81 -124.34)"/><path class="cls-22" d="M1800.44,597.53l-1.65-1.5c1.92-2,4-3.61,7-3.76l.45.42C1805.14,595.33,1803,596.67,1800.44,597.53Z" transform="translate(3.81 -124.34)"/><path class="cls-23" d="M902.57,536.61c-.66.52-1.25,1.34-2,1.51-1.5.33-3.62,2-4.46.18s1.36-2.76,3-3.41C899.74,536.5,901.28,536.3,902.57,536.61Z" transform="translate(3.81 -124.34)"/><path class="cls-24" d="M671.48,655.36l.36,3.15c-.53,2.13-1.47,3.87-3.89,4.25C667.92,659.71,669.45,657.42,671.48,655.36Z" transform="translate(3.81 -124.34)"/><path class="cls-25" d="M906,796.13l2.12,2.11c-.87,1.29-1.55,3.87-3.46,2.3C903.22,799.34,904.71,797.39,906,796.13Z" transform="translate(3.81 -124.34)"/><path class="cls-26" d="M1807.86,590.39c.46-1.4,2.22-2.91,2.71-2,1.33,2.4-1.16,3.12-2.87,3.94A1.38,1.38,0,0,1,1807.86,590.39Z" transform="translate(3.81 -124.34)"/><path class="cls-27" d="M1458,642.91c1.48.34,3,1.33,2.36,2.7s-1.86.51-2.41-.73C1458,644.22,1458,643.56,1458,642.91Z" transform="translate(3.81 -124.34)"/><path class="cls-24" d="M668,662.68a3.68,3.68,0,0,1-1.75,3.82C666.23,664.94,666.38,663.47,668,662.68Z" transform="translate(3.81 -124.34)"/><path class="cls-4" d="M1171.19,738.48a3.12,3.12,0,0,1,1.56-3.57A3.18,3.18,0,0,1,1171.19,738.48Z" transform="translate(3.81 -124.34)"/><path class="cls-28" d="M919,481.45l-.43.38-.12-.5.43-.32Z" transform="translate(3.81 -124.34)"/><path class="cls-29" d="M857.17,875.6l2.19.12a3.13,3.13,0,0,1-3.75,1.65l0,0A1.58,1.58,0,0,1,857.17,875.6Z" transform="translate(3.81 -124.34)"/><path class="cls-29" d="M855.61,877.37l-.72.81c0-.17,0-.41.12-.49a2.71,2.71,0,0,1,.65-.28Z" transform="translate(3.81 -124.34)"/><path class="cls-29" d="M860.8,875.12a2,2,0,0,1,2-1.35A1.93,1.93,0,0,1,860.8,875.12Z" transform="translate(3.81 -124.34)"/><path class="cls-30" d="M1807.86,590.39c0,.64-.1,1.28-.16,1.91a3,3,0,0,1-1.5.38s-.44-.41-.44-.41A2.65,2.65,0,0,1,1807.86,590.39Z" transform="translate(3.81 -124.34)"/><path class="cls-16" d="M1622.53,457.6a1.94,1.94,0,0,1,1.58-2.06A2,2,0,0,1,1622.53,457.6Z" transform="translate(3.81 -124.34)"/><path class="cls-6" d="M284.06,929.87a1.28,1.28,0,0,1-.31,1.22c-.73.3-1.26,0-1.12-.7C282.67,930.14,283.56,930,284.06,929.87Z" transform="translate(3.81 -124.34)"/><path class="cls-31" d="M1041.65,376.29a99.18,99.18,0,0,0-27.11,17.42c-3.78,3.42-8.41,2.66-11-.82s-1.56-8.77,3-11.52c8.18-4.95,17.32-6.24,26.7-6.08A81.63,81.63,0,0,1,1041.65,376.29Z" transform="translate(3.81 -124.34)"/><path class="cls-32" d="M1262.89,260.14c-10.23-1.12-20.24-2.36-30.48-.56-5,.87-8.7-2.46-8.9-6.67-.23-4.62,4.54-9,9.69-8.16C1244.58,246.64,1254.8,251.11,1262.89,260.14Z" transform="translate(3.81 -124.34)"/><path class="cls-33" d="M1338.79,393.18c-10.17.23-19.94.89-29.32,4.48a8,8,0,0,1-1.73.46c-5,.77-9-1.51-9.84-5.53s2.93-8.93,7.71-9.22C1317.78,382.63,1329,385.66,1338.79,393.18Z" transform="translate(3.81 -124.34)"/><path class="cls-33" d="M1457.24,348.74A93.79,93.79,0,0,0,1431,332.86c-5.48-2.25-7.3-6.67-5.15-10.59,2.31-4.23,7.87-5.3,12.5-1.88C1448,327.51,1454.56,336.83,1457.24,348.74Z" transform="translate(3.81 -124.34)"/><path class="cls-34" d="M1562.51,695.16c-22,20.08-48.44,30.44-77.23,35.83-4,.74-7.15.37-9-3.73-2-4.62-5.89-5-10.41-5-26.51-.11-52.63,3.37-78.62,8.06-50.22,9.06-99.2,22.79-147.33,39.61-4,1.4-6.63,1.07-9.57-1.9-5.35-5.41-9.69-11.35-12.26-18.6-2.07-5.82-1.3-10.61,2.38-15.9a329.34,329.34,0,0,1,79-80.57c1.21-.87,2.36-1.82,3.54-2.74.38-4.07-2.07-2.61-4-2.06l-6.79.37c-2,.26-4.67,2.59-5.3-1.64,16.87-8,34.66-13.37,52.78-17.57,9.14-2.12,18.55-1.11,27.82-.5,6.27.42,12.47,1.8,18.73,2.47,18.74,2,33.88,11.44,47.83,23.14,18.69,15.69,35.76,33,49.71,53.1,2.78,4,5.56,5.06,10.48,4.3,22.91-3.55,45.29-8.8,66.46-18.51C1562.57,692.7,1563,693.52,1562.51,695.16Z" transform="translate(3.81 -124.34)"/><path class="cls-35" d="M1286.9,646.88c1.33,2,3.59.91,5.3,1.64-2.87,2-6.07,2-9.78,1.57C1283.19,647.66,1285,647.2,1286.9,646.88Z" transform="translate(3.81 -124.34)"/><path class="cls-36" d="M1562.51,695.16l-1.8-1.85c1.42-1.93,3.36-2.75,6.23-2.82A6.5,6.5,0,0,1,1562.51,695.16Z" transform="translate(3.81 -124.34)"/><path class="cls-37" d="M1299,648.15a31.9,31.9,0,0,1,4-1.26c1-.17,2.53-.74,2.76.69.26,1.63-1.21,2.31-2.67,2.63C1302.2,648.53,1300.39,648.75,1299,648.15Z" transform="translate(3.81 -124.34)"/><path class="cls-5" d="M1288.58,736c4.39-12.58,10.51-24.51,17.09-36.19a281.6,281.6,0,0,1,37-50.78c2.81-3.11,5.71-4.64,10-4.58,11.06.16,22,1,33.4,3.93l-8,10.47a288.77,288.77,0,0,0-35.16,59.42c-1.52,3.46-3,6-7.17,7-14.24,3.49-28.37,7.44-42.56,11.17C1291.76,736.84,1290.26,737.47,1288.58,736Z" transform="translate(3.81 -124.34)"/><path class="cls-5" d="M1361.31,718.13a271.74,271.74,0,0,1,31.31-51c1.45-1.91,3-3.74,4.51-5.59,7.19-8.81,7.29-8.93,16.63-1.7,5.67,4.4,13.33,8.25,15.84,14.15,2.83,6.67-5.88,12-8.72,18.31-2.19,4.9-5,9.54-7.44,14.32-1.11,2.15-2.09,4.22-4.93,4.67-15.33,2.4-30.65,4.89-46,7.33C1362.27,718.63,1362,718.39,1361.31,718.13Z" transform="translate(3.81 -124.34)"/><path class="cls-9" d="M1299.48,677.38c-12,20.11-22.92,40.79-30.25,63.15a6.78,6.78,0,0,1-4.76,4.81c-7.14,2.3-14.27,4.61-21.39,7-2.39.8-4.69,1.49-6.31-1.25s-4-5.48-2.11-9.09a19.47,19.47,0,0,1,1.53-2.22c17.37-24.34,37.34-46.21,61.22-64.36C1299.18,674.93,1299.9,675.56,1299.48,677.38Z" transform="translate(3.81 -124.34)"/><path class="cls-38" d="M1431.19,708.05a160.21,160.21,0,0,1,11.71-19.93A78.16,78.16,0,0,1,1455.85,706C1447.87,708,1440.18,707.75,1431.19,708.05Z" transform="translate(3.81 -124.34)"/><path class="cls-39" d="M1299.48,677.38l-2.07-2c1-1.94,2.75-3,5.39-3.86A6.92,6.92,0,0,1,1299.48,677.38Z" transform="translate(3.81 -124.34)"/><path class="cls-1" d="M1035.92,131.89c28.88-.38,52.09,8.71,73.07,23.62,16.34,11.61,17.46,32.59,3.18,44.76-3.76,3.21-8.2,4.89-12.9,6-4.37,1.06-8.77,2-13.09,3.22a76.81,76.81,0,0,0-33.2,19,52.67,52.67,0,0,1-89.67-40.44c1.15-19.73,10.71-34.79,27.77-44.6C1005.68,135.1,1021.65,131.36,1035.92,131.89Z" transform="translate(3.81 -124.34)"/><path class="cls-31" d="M1048,177.73a99.33,99.33,0,0,0-27.11,17.42c-3.78,3.42-8.41,2.66-11-.82s-1.56-8.77,3-11.52c8.18-4.95,17.32-6.24,26.7-6.08A81.31,81.31,0,0,1,1048,177.73Z" transform="translate(3.81 -124.34)"/></svg>