<svg id="Camada_1" data-name="Camada 1" xmlns="http://www.w3.org/2000/svg" viewBox="0 0 1180.54 1037.89"><defs><style>.cls-1,.cls-4{fill:#ff3051;}.cls-1,.cls-6{stroke:#ff3051;}.cls-1,.cls-2,.cls-6{stroke-miterlimit:10;}.cls-2,.cls-6,.cls-7{fill:#001b26;}.cls-2{stroke:#000;}.cls-2,.cls-6{stroke-width:4px;}.cls-3{fill:#3e9bd6;}.cls-5{fill:#f1abc3;}.cls-8{fill:#6ec7ff;}.cls-9{fill:#fff;}.cls-10{fill:#6dc5fc;}.cls-11{fill:#6dc6fe;}.cls-12{fill:#fefeff;}.cls-13{fill:#fefefe;}.cls-14{fill:#fcfeff;}.cls-15{fill:#3f9ad5;}.cls-16{fill:#fcfefe;}.cls-17{fill:#fefdfe;}.cls-18{fill:#fdfdfd;}.cls-19{fill:#fbfafb;}.cls-20{fill:#3e9ad4;}.cls-21{fill:#3b96d0;}.cls-22{fill:#bae0f4;}.cls-23{fill:#9a2955;}.cls-24{fill:#e4b7ca;}.cls-25{fill:#592444;}.cls-26{fill:#408ab3;}.cls-27{fill:#72264b;}.cls-28{fill:#c68aa6;}.cls-29{fill:#a02a57;}.cls-30{fill:#21546f;}.cls-31{fill:#3c7693;}.cls-32{fill:#e1306c;}.cls-33{fill:#802547;}.cls-34{fill:#3d9ac9;}.cls-35{fill:#f9fafa;}.cls-36{fill:#f9fbfb;}.cls-37{fill:#f8fafa;}.cls-38{fill:#265470;}.cls-39{fill:#40799e;}.cls-40{fill:#3e96c2;}.cls-41{fill:#f2f4f5;}.cls-42{fill:#cee2e4;}</style></defs><path class="cls-1" d="M1508.62,859.72q3.48,4.95,7,9.88c5.69,14.21,9.64,29.52,24.19,38.13,2.82,4.49,8.44,6.7,10,12.23-1,2.19-2.16,4.6-5,2.26-20.07-16.43-38.7-34-50.5-57.78-5.53-11.16-14.35-18.15-25.86-25.23-13.11-8.06-36-7.19-38.56-29.88-.18-1.61-4.73-2.62-7.11-4.12-24-15-49.35-28.09-69-49.12-6.55-7-7.68-14.92-9-24.56-2.36-16.79-11.22-32.08-22.84-45.69-16.56-19.4-41.39-14.88-61.6-23.47-8.23-3.5-16.21-7.85-24.61-10.56-9.11-2.94-5.43-11-7.81-16.1-6.27-13.49-19-16.92-29.87-23.27-20.06-11.75-36.26-26.41-48.25-47.05-8-13.81-21.28-24.6-32.36-36.58a6.17,6.17,0,0,0-5-1.59c-25.15,6-35.09-19.65-54.25-26.1a8,8,0,0,1-4.28-5.3c-2.64-15.41-7.37-28.9-22.73-37-2.62-1.38.56-10.63-2.26-16.34-4.31-8.72-10.15-13.28-20.07-11.47-12.87,2.33-23.84.79-30.18-12.83-3.65-7.85-10.18-11.66-18.59-15.4-17.43-7.77-32.2-20.69-49.05-30.17-7.92-4.45-11-19-14.49-29.51-7-21.35-11.32-25.63-32.52-25.77-10.37-.06-17.27-4.56-21.55-13.62-9.78-20.63-30.64-25.13-48.83-33.5-.84-.38-2.17-.91-2.72-.55C770.45,283.09,763.12,263,757.91,253c-10.49-20-30.72-27.65-45.13-42.29-17.07-17.35-42.37-18.8-64.69-24.89-14.47-3.94-24.8-12.73-35-22-6.69-6.07-11.07-12.88-22.32-9.78-7.65,2.1-12.92-6.69-19.61-10-11.93-5.83-25.1-9.94-33-22.77-4.75-7.69-13.4-11.07-23.7-8.81-5.28,1.15-10.9,3.1-16.87-2.53-12.93-12.17-29.8-17-46.92-20.7-11.13-2.37-19.61-8.25-26.2-20.33,4,.79,5.62.61,6.39,1.36,17.81,17.33,40.9,15.16,62.83,16.84,11.88.91,23.95-.85,32.93,10.38,4.46,5.57,11.81,6.33,19.29,6.82,14.85,1,29.94,2.68,40.5,15.55a11.85,11.85,0,0,0,4.67,3.11c17.86,7.17,33.84,15.64,45.92,32.41,8.09,11.24,22.9,15.41,38.45,12.52,11.26-2.1,21.75-.5,30,10.12,8.34,10.8,19.26,14.55,34.47,13.89,22.88-1,44,8.26,59.63,26.33,6.83,7.87,12.67,16.36,25.08,15.41,5.27-.41,8.25,4.79,10.53,8.5,6.72,10.95,17.93,16,28.07,22.25,5.57,3.42,12-4.66,19.21.05,14.14,9.17,33.07,11.78,38.58,31.88,2.95,10.77,10.53,15.77,22.48,12.93,11.6-2.77,20.23,4.22,29,10.29,5.87,5.78,13.73,7.71,21,10.77,2.9,6.3,5.1,13,10.49,17.87L1052,362.89c3.57,12.49.82,28.26,10.89,37.06,14.58,12.75,34.64,21.85,51.88,24.55,17.94,2.81,19.92,14.91,21.85,23.06,4.24,17.79,15.09,16.64,27.72,15.8,2.15.78,4.94.59,5.55,3.68,5.07,13.2,18,19.77,25.92,30.71,9.49,13.16,16.36,29,33,35.6l.44.39c2.2,4.78,3.39,9.6,2.44,15-1.66,9.5,5.69,16.19,12.17,16.07,21.5-.41,33.1,15.1,47.51,26.14,12.46,9.56,20.08,21.56,19.78,38.34-.07,3.87,1,12.15,7.11,13.29,10.83,2,15.31,12.07,23.43,16.52,10.21,5.61,12.41,17.82,21.68,22.64,8.33,4.32,13.21,10.6,16.57,18.46,7.91,18.46,12.31,38.9,31.39,50.62,2.9,1.78,4.18,6.2,6.19,9.41,4.81,7.71,11.34,13.28,18.7,18.84,13.72,10.36,28.63,20.89,35.29,37.36,4.55,11.26,10.91,20,19.09,28.6C1496.11,850.86,1504.9,852.14,1508.62,859.72Z" transform="translate(-369.75 -21.25)"/><path class="cls-1" d="M1277.14,842.13c20.71,18.49,40,37.94,52.63,63.39,4.42,8.88,18.35,9.18,23.68,18.88,6.07,14.9,12.16,29.67,27.71,37.78,3.55,1.85,8.29,5.68,5.81,9.85-2.62,4.42-7,.73-10.89-.89-6.44-2.71-9.57-8.26-14-13-7-7.62-11.25-19-24.38-19.94-2.06-.14-3.9-6-5.52-9.3-5.5-11.37-11.71-22-23.86-27.68-1.76-.81-1.92-4.08-5.35-2.46-18.66,8.82-20.77-8.95-21.55-17.48-1.08-11.85-7.4-12.21-15.07-13.89-15.92-3.5-31.38-7-45.06-17.56-13.49-10.41-16.86-26.57-26.31-39.18-7.25-9.67-16.16-11.27-24.88-9.41-5.57,1.18-8.72-.14-12.76-2-22.46-10.3-37.13-31.08-58.24-43.24-3.84-2.21-2.74-5.93-2.55-9.93.58-12.68-8.87-17.64-19.86-22.06-14.81-5.95-32.52-3.35-44.89-15.32-2.33-2.26-3.85-3.24-7.12-2.43-20.35,5-33.38-5.3-44.69-20.65-5.18-7-11.24-14-21.65-14.39-7.68-.25-8.84-5.56-7.71-12.09,3-17.42-8.54-36.77-24.4-44.09-11.58-5.34-23.15-10.77-27-26-1.33-5.33-8.2-19.64-19.75-6.49A8.49,8.49,0,0,1,877.3,584c-7.94-11.65-20,.27-30.38-5.54-7.94-4.45-12.81-7.23-15.21-16.38-2.06-7.87-15.06-9.92-13.17-21.51.85-5.28-3.38-6.07-7.6-4.57-11.67,4.16-18.08-1.83-26-10-11.24-11.58-19.56-23.8-27-38.3-8.69-16.93-28.09-24.13-45.66-31.6-5.7-2.42-15.67-1.17-10.86-15.06,3.12-9-10.41-13.95-18.4-14.88-7.24-.85-11-3.93-14.86-8.65-4.58-5.64-10.1-9-17.32-11.33-9.53-3.12-20.85-5.35-19.65-21,.47-6.26-7-13.17-15.77-13-7.94.11-13.52-6.08-19.24-7.77-22.55-6.66-37.05-23.26-54.3-36.67-9.22-7.17-21.81-8-31.49-15-7.67-5.54-18-7.76-19.57-19.79-.39-3.08-4.33-7.72-7.17-8.15-14.35-2.19-25.74-9.91-38.07-16.54-4.91-2.63-10.58-4.47-15-8.44-7.31-6.59-14.47-11.71-25.38-13.09-13.12-1.67-22.86-12.34-33.54-20a3.33,3.33,0,0,1-.61-5c1.31-1.51,3.09-1.2,5,0,19,12.5,40.54,19.94,60.71,30.13,12.79,6.46,26.52,8.12,40.1,11.42,15.53,3.76,29.78,13,41.55,24.78,6.91,6.91,13.36,14.36,20.86,20.56,6.55,5.43,12.58,15,23.54,7.31.31-.21.93.07,1.38,0,7.95-1.38,10.66,14.71,22.95,5.46,4-3,17.38,6.73,26.63,10.18,4.8,1.79,4.15,6.95,7.4,9.81,16.16,14.2,32.37,27.84,53.13,35.6,9.6,3.58,19.9,9.55,25.79,17.47,4.52,6.08,8.65,3.58,12.67,5.41,22.47,10.27,51.63,8.68,64.62,36.47,4.17,8.9,14.11,10.65,23.28,14.07,8.7,3.24,26.07.93,23.33,20.15-.81,5.68,6.91,11.51,10.52,12.11,9.58,1.59,17.86,7.87,28.48,6.24,8.31-1.27,16.92,1.61,21.41,10,6.89,12.86,20.19,19.08,28.33,29.88,6-2.36,2.69-8.18,6.66-11.07,4.82-3.5,7.61-9.32,13.41-.27,4.1,6.41,11.93,8.71,20.15,7.54,9.17-1.3,20.61,8.39,18.43,17.23-2.3,9.29.85,14.16,7.8,18.78,2.69,1.78,3.54,5.44,5.35,8,11.51,16,19.64,34.13,41.53,41.77,13.39,4.68,25.53,12.82,40.46,12.25,11.41-.43,17.18,7.25,23.86,14.63,8.55,9.47,12.83,19.26,14.38,32.61,1.86,16.12,19.65,21,31.44,29.57,12.56,9.09,29.9,12.37,33.91,31.21.57,2.67,7.19,3.83,10.71,6.15,5.83,3.85,15.23,5.34,11.52,16.13a2.77,2.77,0,0,0,1,2.51c16.74,8.13,19.67,30.8,38.62,36.54,3,1.9,2.45,6.92,6.78,7.6C1244.92,820,1256.84,834.86,1277.14,842.13Z" transform="translate(-369.75 -21.25)"/><path class="cls-1" d="M1264.18,311.87l8,10.89c.31,9,.19,20.43,12,19.91,17-.74,19.51,12.39,26.36,22,2.45,3.44-1.49,7.94,2.28,10.49,15.13,10.24,24.59,24.86,34,40.16,8.52,13.9,28,18.52,33,36.19l5.23,8.17c5.52,2.13,8,7.52,12.21,11.06,7.12,6.07,12,16.09,23.68,15,8.87,3.45,2.81,15.17,10.65,19.2,6.81,7.74,8.68,20.31,21.62,22,4.51,11.69,16,16.84,24.88,23.39,7.36,5.43,13.74,10.91,15.11,18.93,2.4,14.14,15.52,22.86,17,37.05-9.54-3.22-15.06-11-20.83-18.45-3.17-4.09-6-8.53-9.67-12.13-12.74-12.5-26-24.33-34.83-40.4-6.53-11.84-17.55-18-31-21.9-9.63-2.75-19.92-7.44-24.77-18.39-1.41-3.19-4.56-7.41-7.44-7.86-20.54-3.26-28.14-22.31-42.1-33.48-2.14-1.71-4.51-4.15-5.07-6.63-5-21.67-21.26-29-40.54-33.06-11.26-2.34-14.1-7-12.48-18.88.83-6.14-5.85-7.51-8.26-7.61-16.55-.69-24.16-16.53-38.09-22.18-4.55-1.84-15.53-9-15.51-21.31,0-6.28-11.24-8.14-18.2-9.5-11.37-2.23-23.38-2.07-31.79-12.07-1.07-1.28-4.8-1.72-4.75-2.35,1.63-20.93-15.51-16.89-26.88-20-4.25-1.15-6.29-2.61-7.34-7-3.2-13.38-11.07-19.32-25.4-23.51-13.73-4-29.68-8.29-40.5-17.92-6.86-6.11-15.09-15.65-17-24.75-2.59-12.37-10.27-10.56-17.41-10.51-13.14.11-26,1.57-37.39-7.79-6.2-5.12-14.43-7.69-16.54-17-1.17-5.15-6.21-7.74-10.54-8.59-10.61-2.09-14.67-10.18-18.16-18.42-3.15-7.47-7.21-11.65-15.85-12.12-7.47-.42-14.93-2.51-22.19-4.61-4.42-1.29-10.37-3.46-10.41-8.44-.1-10.5-7.11-13.67-14.75-16.48-15.87-5.82-32.18-10.84-47.62-17.33C816.29,97.08,796,87,777.79,73.57a60.86,60.86,0,0,0-25.66-11.19c-30.26-5.23-54-25-82-34.12.93-5.7,5.17-7.6,7.4-5.93,12.5,9.4,28.69,6.78,42.55,15.16,12.24,7.39,28.23,15.37,45.16,12.63,8.83-1.43,16.09,2.49,21.42,8.57,5.1,5.82,11.78,10.17,18.17,9.85,16.74-.84,30,9.15,44.56,13.91,7.23,2.36,15.62.81,22.68,5.88,7.24,5.22,13.57,11.62,20.77,16.88,7.78,5.7,13-1.55,20.43.9,13.56,4.49,27.11,11,43.2,9.67,8.84-.73,22.5,6.89,26.89,14.71,5.93,10.58,16.56,16.16,21.73,26.56,2,4,4.4.84,6.84,0,24.31-8.22,41.6-2.06,56,20.08a16.41,16.41,0,0,0,9.61,7.43c6,1.92,16.06,3.41,15.82,9.66-.69,18.38,16,16.93,24.88,23.13,10.4,7.27,22.56,14,37,9.87,5.6-1.61,9.27,2.59,12.21,7,7.55,11.45,11.77,25.86,27.49,30.1,2.19.59,4.08,3.18,5.31,6.12,4.89,11.64,12.85,15.58,24.32,8l12.57,8.14c.89,7.09-1.14,20.25,5.68,19.15C1252.49,304.21,1256.6,312.51,1264.18,311.87Z" transform="translate(-369.75 -21.25)"/><path class="cls-1" d="M499.1,556.62c9.28-1.23,17.2,3.16,24.06,7.48,24.93,15.68,55.89,18.6,79,38.29,6.22,5.3,13.77,8.28,19.23,15.6,6.43,8.63,18.14,10.5,28.4,14,15.81,5.39,31.52,8.66,47.09,18.25,16.32,10,32.53,26.86,55.94,26,11.76-.44,20,11,29.81,17s18.59,7.61,28.87,3.92c1.57-.56,3.49-3.16,4.6-.94,6.33,12.78,23.33,11.92,30.06,23.75a11.62,11.62,0,0,0,8.61,6.34c14.3,2.84,24.88,17.14,41.69,13.24,2.2-.51,6.31,3.85,8.39,6.77,6.85,9.57,13.33,18.83,25.07,23.8,5.55,2.35,9,8.35,7.68,16.61-2.22,13.59,5.4,19.12,18.07,24,9.14,3.54,24.16,2.83,24.75,19.57.22,6.31,7.91,8,13,9.16,8,1.85,12.62,7.49,18.49,12.21,16.78,13.49,31.72,28.48,43.47,46.59,1.2,1.85,3.71,4.21,5.49,4.11,17.45-.94,19.23,16.37,28.85,24.43,2.79,2.34,4,7.58,7,8.57,24.64,8.29,35,31.63,52.25,47.64,14.63,13.56,26,30.29,42.7,41.79,12,8.29,12.62,26.24,26.93,33.45-9.27-1.24-17.92-3.06-22.61-12.19-4.86-9.46-13.91-15.44-19.84-24-.78-1.12-2.26-2.79-3.14-2.63-16.3,2.86-21-17.34-30-18.36-20.45-2.32-23.29-14.14-27.7-29.33-2.6-8.94-12.83-13.28-22.14-12.2-12.66,1.46-18.69-6.25-22.34-15.12-9.21-22.4-30.42-26.43-49.24-29.92-13-2.41-22.07-8-27.77-17-4.31-6.74-9.75-10.26-15.23-10-11.07.44-19.39-7.06-30-7.65-7.79-.43-7.33-9.4-8.4-14.64-1.16-5.74-4.59-9.88-8.44-9.22-15.9,2.72-19-8-22.07-19.11-3.48-12.6-12.86-15.14-22.87-10.94-27.83,11.66-42.42-5.49-50.74-26.68-4.07-10.38-11.59-19.81-10.85-32.16.33-5.55-3.3-9.38-9.79-9.7-11.77-.57-22.15-4.11-27.7-15.67-1.43-3-5.37-5.5-6.35-4.55-12.6,12.3-17.61-4.06-26.12-6.64-3.58-1.08-6.85-3.24-10.45-4.23-7.83-2.14-13.18-6.12-15.51-14.51-3.68-13.24-13.77-21.26-24.11-29.72-7.16-5.87-16.14,3.67-21.1-4.71-3.86-6.54-6.5-13.79-10.21-20.44-1-1.71-4.23-3.68-5.82-3.25-19.44,5.29-30.67-13.76-47.86-16-6.88-.9-7.09-12.32-12.92-17.67-6.87-6.32-11.45-11.53-19.92-1.72-6.37,7.37-13.81-.18-16.19-4.3-15.85-27.4-41.27-41.15-69.43-51.6C500,561.73,498.49,560.33,499.1,556.62Z" transform="translate(-369.75 -21.25)"/><path class="cls-1" d="M1539.78,907.73c-14.55-8.61-18.5-23.92-24.19-38.13C1527.46,879.9,1537.22,891.54,1539.78,907.73Z" transform="translate(-369.75 -21.25)"/><path class="cls-1" d="M503.1,862.83l-10.66,2.57c-13.89,0-28.13-1.78-40.27,7.6-4.73.87-8.48,4.87-13.66,4.31-1.5-1.61-3.15-3.37-.22-5,20.58-11.41,41.62-21.23,65.66-23.19,11.26-.92,20.12-6,29.95-13.34C545.1,827.45,552,807.87,572,813.3c1.43.39,3.8-3.1,5.86-4.61,20.7-15.19,40.25-32.18,64.58-41.74,8.1-3.18,15.16-1.47,23.75.63,14.95,3.65,30.8,1.3,46.19-3.93,21.91-7.45,26.43-29.9,40.45-44.06,5.71-5.76,12.06-11,17.16-17.2,5.53-6.7,11.09-.9,16.2-1.19,13.48-.76,20.65-10.37,29.64-17.38,16.63-13,34.43-21.71,55.86-24.89,14.33-2.12,27.88-9.69,41.7-15a5.61,5.61,0,0,0,3-3.67c3.41-23.2,28.35-23,40.21-37a7.18,7.18,0,0,1,5.91-1.83c13.87,2.94,26.83,3.49,38.84-6.74,2.05-1.74,8.78,4,14.54,3.57,8.8-.7,14.6-4.1,16.41-13.07,2.35-11.63,7.33-20.36,20.94-21.14,7.84-.45,13.24-4.67,19.22-10.5,12.4-12.1,28.25-20.21,41.89-31.24,6.42-5.18,19.69-2.93,29.74-2.32,20.37,1.24,25.42-.94,32.65-18.77,3.53-8.72,9.64-13,18.71-13.6,20.68-1.32,31.47-17.4,44.63-29.93.61-.58,1.5-1.52,1.38-2.11-4.53-21.66,14.91-21.09,25.06-22.14,20.4-2.12,33.61-16.62,50.8-23.86,20.34-8.57,30.06-29.42,42.68-46.2,8.18-10.88,19.06-16.63,30.26-22.12,7.37-3.61,14.58-5,15.75-15.54.79-7.16,10-8.65,15-13.2,8.92-8.09,16.8-17.82,30.28-20.2,8.08-1.42,13.83-7.58,15.38-17,.8-4.84,1-10.24,7.79-13.38,14.61-6.82,24.38-19.4,33.2-32.62,5.74-8.58,13.54-13.76,25.93-15.27-2,3.07-2.4,4.54-3.29,4.94-20.59,9.2-26.51,29.4-35.28,47.32-4.75,9.71-7.32,20.49-19.8,24.29-6.19,1.88-9.3,7.83-12.22,14-5.79,12.2-12.31,24.35-26.7,28.93a10.64,10.64,0,0,0-4.19,2.9c-12,12.65-24.54,23.28-42.73,27.84-12.2,3-20.68,14.14-23.46,28.22-2,10.19-6.88,18.51-18.6,21.87-11.9,3.41-18.72,11.36-23.27,24.4-6.85,19.62-21.72,34.3-42.21,41.45-8.93,3.12-18,5.19-21.4,16-1.43,4.58-6.81,5.35-10.7,6-11.49,2-19.53,9.74-28.18,16.2-4.76,3.55-.09,11.65-6.49,16.19-12.48,8.83-21,23.92-39.83,21.82-10.07-1.12-16.83,3.59-18.44,14.62-1.56,10.71-10.35,15.64-18.39,21-6.85,3-11.11,9-16.13,14.1-6.29.33-12.69-.07-18.59,2.85q-14.23,17.79-28.46,35.6c-11.73-1.19-24.11-8.79-34.91-3.26-15.64,8-30,21.88-38.1,35.51-8.39,14.18-19.26,11.79-26.78,10.69-16.42-2.4-19.09,7.13-22.62,18.06-1.38,1.55-2.15,4-5,3.45-12.84-.15-22.72,8.56-34.59,11.55-14.28,3.58-29.95,4.06-41.11,15.9l-.47.24c-4.77.25-9.23-.36-13.5-3-7.45-4.59-15.56-.64-17.63,4.86-6.88,18.27-23.84,22.85-38,31.29-12.24,7.3-24.91,9.7-39,3.82-3.24-1.36-10.58-3.23-13.59,1.53-5.35,8.45-15.31,8.86-21.79,14.21-8.15,6.73-19.18,4.49-26.36,10.69-6.44,5.57-13.37,7.58-21.13,7.78-18.22.47-36.93-2.68-53.21,9.48-2.47,1.84-6.63,1.44-10,2-8.12,1.48-15,5.12-22.16,9.45C582,836.92,568.15,846,552,846.05c-11,.06-20.54,2.49-30.52,6.5C514.77,855.26,510.74,862.24,503.1,862.83Z" transform="translate(-369.75 -21.25)"/><path class="cls-1" d="M595.61,673.56c-22.54,11.27-45.4,21-71.11,23.11-9,.75-13.89,12.4-23.87,13.63-14.59.12-29.09.3-41.14,10.69-2.75,2.37-7.58,5.09-10.26,1.6-2.85-3.7,1.74-6.19,4.4-8.89,4.45-4.52,10.18-5.3,15.64-7.41,8.79-3.38,19.8-3.11,25-13.87.82-1.68,6.33-1.29,9.7-1.53,11.43-.82,22.51-2.48,31.34-10.83,1.28-1.21,4.09-.25,3.87-3.68-1.18-18.7,14.51-14.51,22-12.31,10.36,3.07,12.78-2.14,16.77-8,8.29-12.25,16.43-24.11,29.92-32.11,13.31-7.88,28.06-5.29,41.87-9C660.28,612,664.62,605,666,597.07c.87-5.1,3-7.31,6-10.09,16.22-15.48,38.67-20.87,56-34.6,3.16-2.49,5.92-.32,9.23,1.18,10.5,4.75,17.85-1.56,25.27-9.34,10-10.49,13.74-26.29,28-32.7,2.69-1.21,4-2.16,4.45-5.19,2.58-18.85,15.66-26.37,32.4-30.75,7.68-2,15.61-4.78,19.39-13.44,2.79-6.38,7.66-5.58,12.79-2.44,13.68,8.39,33.87,5.14,45.36-5.77,8.39-8,16.85-15.92,31-14,5,.67,19.31-.32,12.1-14.47a7.55,7.55,0,0,1-.48-2.39c12.49-2.8,6.49-17,14.87-23.77,6.41-5.2,10.39-8.37,18.91-7.32,7.33.9,13.42-9.37,22.56-3.89,4.16,2.49,6.25-.81,6.39-4.88.41-11.23,7.62-14.62,17.13-18.55a139.61,139.61,0,0,1,41.35-9.91c17.19-1.64,29.77-15.59,42-27.9,4-4,6.24-12.81,16.34-4.1,6.56,5.65,15.26-4.1,18.73-10.52,3.14-5.82,7-8,12.28-9.62,6.29-2,10.94-5.52,15.36-10.81,5.83-7,11.51-15.78,24.34-9.51,5.12,2.51,13.46-1.5,16.29-8.92,2.56-6.73,9.65-9.35,13-13.61,13.19-16.77,32-23.43,49.15-33.48,9.13-5.37,14.07-15.7,23.21-21.51,7.25-4.61,12.59-12.6,23.25-9.86,2.74.7,8-1.06,9.28-3.31,6.67-11.37,17-18.38,26.72-26.56,3.87-3.25,7.32-7.41,12.15-9.79,8-4,14.72-8.28,19.55-17,5.8-10.5,18.07-15.13,28.08-21.58a3,3,0,0,1,4.4,1.15c.84,1.61,0,3-1.69,4.18-16.92,11.84-30.42,27.5-45.77,41.08-9.74,8.62-15.75,19.63-23.08,30-8.39,11.83-21,20.74-34.84,26.72-8.14,3.51-16.59,6.45-24.34,10.69-6.77,3.7-16.89,5.56-14.06,17.39.08.33-.37.77-.45,1.18-1.51,7.16-16,4-12.31,17.51,1.2,4.39-11.5,12.39-17.52,19-3.12,3.45-7.25,1.16-10.75,2.95-17.4,8.86-34.34,18-47.84,32.85-6.25,6.89-14.73,13.57-23.39,15.88-6.64,1.78-5.91,6.09-8.81,8.86-16.2,15.5-24.64,40.63-52.43,42.26-8.91.52-13.72,8.31-19.67,14.9-5.66,6.25-9.54,21.67-24.82,12.92-4.52-2.59-12,1.95-13.74,4.8-4.55,7.54-12.63,12.42-14.82,21.92-1.72,7.43-7,13.72-15.61,14.7-13.16,1.49-22.86,10.62-34.71,13.85,0,5.87,6,5,7.1,9.34,1.34,5.23,5.31,9.54-4.27,11.39-6.78,1.31-11.34,7.14-13.12,14.46-2,8.17-14,14.57-20.7,9.76-7.07-5-12.23-4-18.45.28-2.41,1.66-5.79,1.16-8.51,1.84-17.37,4.33-35.36,5.1-49.15,21-8.44,9.72-19.37,17.22-23.91,30-3.46,9.76-11.87,12.05-20.33,15.2-10.86,4-20.55,4.36-32.32,1.18-14.22-3.83-24.34,9.52-35.49,16.59-11.88,7.54-20.46,21.06-37.69,18.13-2.44-.42-5.65,4.77-8.78,7-5.2,3.63-9.61,11-17.46,4.3a2.52,2.52,0,0,0-2.44,0c-12.47,11.38-32.57,6.25-43.77,20.3-2.6,1.87-6.65-.25-8.68,3.17C625.09,653.83,608.55,658.89,595.61,673.56Z" transform="translate(-369.75 -21.25)"/><path class="cls-1" d="M1047,840.56l-11.88,3.13c-7.66-2.75-17.28-6.69-20.8,3.39-5.09,14.63-17,12.3-27.42,14.84-3.72.91-6.18-3.92-9.61-1.59-13.7,9.32-29.2,12.39-45.26,15.16-14.57,2.52-25,17.44-41.59,15.72l-8.65,1.66c-3.64,3.94-9,4.27-13.42,6.59-7.5,4-17.57,4.68-20.56,14.94-5.89,6.32-13.74-2.72-19.77,2.53-8.8,3.15-20,.51-25.82,10.85-11.36-.12-19.57,7.84-28.07,13.13-7,4.38-13.81,7.92-21,6.38-12.73-2.71-24.49,5.43-36.93,1.87,5.91-7,14.3-9,22.54-11.38,4.51-1.29,9.21-2.2,13.47-4.08,14.82-6.55,29.24-13.73,45.75-15.81,12.18-1.53,21.1-8.74,28.87-18.79,5.55-7.19,13-14.3,23.82-14.72,3.16-.12,7.78-1.36,9.12-3.63,9.64-16.22,28.26-16.24,42.36-24.27,2.16-1.22,5-2.4,7.29-2.05,19.93,3.1,31.62-8.17,41.47-23.08,5.76-8.71,10.6-9.55,20.11-4.19,4.9,2.76,8.3-2.41,9.19-4.41,6.13-13.72,22-14.82,31.48-24.68,3.08-3.22,12.82-10.06,23.17-5.92,5.29,2.12,10.63-6.75,14.12-12.16,5.69-8.84,9.59-19,20.84-22.75,1.44-.48,3.06-3.47,3.57-3.22,17.1,8.4,19.46-7.41,25.87-16,2.4-3.19,4.32-4.43,8.38-3.84,12.35,1.8,20-2.85,28.34-13.52,8-10.23,17-22.25,28.7-28.14,7.45-3.74,18.26-7.47,26.57-6,11.3,2,12.35-5.11,14.7-11.15,4.32-11.12,7.4-22.46,19.12-28.91,6.39-3.52,11.32-9.59,19.85-8.26,4.73.74,8.6-2.64,10.77-6,5.32-8.25,13.51-9,21.63-9.13,7.36-.16,12.24-2.18,15.54-9.3,2.85-6.16,7.12-11.75,11.33-17.16,2.57-3.3,6.39-7.59,10.61-6,8.88,3.44,13.91-1.4,18.84-6.91,10.23-11.42,19.94-23.49,30.59-34.33,14.18-14.45,29.49-28.23,46.92-39a55.23,55.23,0,0,0,18-17.87c14.56-23.77,39.14-37.13,56.28-57.68,4.49,2.69,4.68,6.91,2.52,8.22-12.12,7.39-15.34,21.91-27.06,30.79-10.34,7.84-22.43,18.64-25.8,33.84-1.76,7.93-7.5,12.73-14.42,15.18-6.62,2.35-12.52,6.53-14.4,12-4.91,14.4-17.79,22.25-26.67,32.91-4.42,5.3-5.93,12.89-12.58,17.14-6.82,4.36-14.35,7.55-21.19,11.85-7.42,4.66-3.05,11.47-7.62,16.92-8.33,9.93-18.35,19.18-22.64,33.19-2.36,7.69-13.36,16.65-21.43,17.73-10.91,1.45-19.18,8.54-29.69,9.41-4.09.34-2.18,3.43-2.31,5.76-1.23,23.25-12.23,35.77-35.7,40.45a14.93,14.93,0,0,0-9.5,5.61c-3.63,4.43-8.26,12.39-13.45,10.1-15.27-6.75-19.64,7.8-27.85,13.21-9.61,6.33-19.4,14.31-20.75,27.92-.52,5.26-5.29,6.95-10,7.93-12.19,2.53-25.76,1.25-34.6,13.09-1.23,1.64-4.06,2.36-7,2.42-11.45.21-17.45,5.6-14.88,17.83l-11.08,7.86c-6.28-1.63-16.7-7.75-18.06-1.63C1057.43,833.27,1049,834,1047,840.56Z" transform="translate(-369.75 -21.25)"/><path class="cls-1" d="M1097.39,113.36c-2.08,8.23-8.43,13.44-14.37,17.78-21.59,15.75-34.44,40.88-58.79,53.74-6.56,3.47-11.6,8.84-19.61,11-9.44,2.52-14.94,11.77-21.33,19.25-9.84,11.52-17.87,23.67-31.18,33.58-14,10.39-33.57,18.42-40.68,38.45-3.57,10.06-16,13.21-24.34,19.42s-12.65,13.13-13,23c-.05,1.52,1.5,4-.75,4.19-12.9,1-17.87,15.68-30.11,17.38a10.52,10.52,0,0,0-8.23,5.14c-7.19,11.1-22.8,15.22-25.15,30.7-.31,2-5.37,4-8.52,4.81C791,394.38,781,396.74,772.85,405c-3.84,3.89-10.08,4.81-16.59.9C745.55,399.44,738.33,404,730,413c-6.05,6.52-10.49,19.43-24.81,14.3-5.39-1.93-9.39,4-12.08,7.89-4.26,6.16-10.55,8.13-16.5,11.5-17,9.62-34.65,17.19-53.86,21-2,.39-4.8,1.71-5.31,3.24-5.07,15-20.25,10.73-30.28,16.13-2.92,1.57-7.74.85-9.56,3-15.26,18-38.41,18.89-57.7,28.07-16.34,7.78-34.27,11.78-49.56,22-11,7.35-26.36,1.84-37.25,11.49,4.16-7.41,8.6-14.09,17.87-15,9.61-.92,17.68-6.55,26.9-8.68,1.2-.27,3.1-1,3.27-1.76,3.05-14.7,21.65-11.86,25.53-19.1,8.81-16.46,19.73-14.89,34-13.51,8.41.81,15.5-6.36,17.72-14.57,3-11.17,11.53-13.67,20.24-13.77,22-.24,32.49-16.77,41.75-31.47,6.38-10.13,14.19-15.91,23.64-17.72,7.13-1.37,11.92-4.77,13.58-9.47,3.34-9.48,12.46-14,16.51-22.73,3-6.42,10.38-3,15.16-2.16,5.23.94,9.88-.56,10.61-4,3-14.33,13.14-13.34,23.52-12.2,11.79,1.29,17.08-5.76,16.9-15.62-.5-27.37,18.86-33.92,39.52-33.83,10.11.05,20.59-3.12,30.75,1.64,4.57,2.15,9,.37,11.46-5,4.44-9.74,10.9-17.3,22.51-18.1,3-.21,6.44-2.69,6-3.83C844.32,276,859.8,277.3,864.83,271c2.12-2.65,5-4.68,7.07-7.39,4.44-5.88,9.59-9.06,17.44-8.21,12.4,1.34,22.55-4.47,33.15-10.35,7.35-4.07,2.32-14.84,11-16.21,6.81-1.06,13.81-.86,20.66-1.75,1.76-.23,4.52-2.34,4.69-3.82,2.07-18.17,21.89-21.24,29.56-35,3.07-5.5,12.77-1.85,19.24-5,7.63-3.68,13.56-5.79,8.13-16.23-4.08-7.83,4.78-11.58,9.06-12.2,28.42-4.17,48.54-21,66.8-41.23C1092.78,112.43,1094.47,111.6,1097.39,113.36Z" transform="translate(-369.75 -21.25)"/><path class="cls-1" d="M452.17,873c12.14-9.38,26.38-7.57,40.27-7.6C479.77,872,466.68,876.28,452.17,873Z" transform="translate(-369.75 -21.25)"/><path class="cls-2" d="M1001.67,262.7l-156.92,19c-.45,0-.9.12-1.34.16a4.93,4.93,0,0,1-5.36-4.15c0-.29-.08-.57-.11-.86q-5.16-42.63-10.3-85.28a7.5,7.5,0,0,1-.11-1.95,5,5,0,0,1,4.05-4.23c.41-.07.82-.11,1.22-.16l314.82-38.05a5.79,5.79,0,0,1,4.44.84,5.1,5.1,0,0,1,2,3.26c0,.2.06.41.08.61q5.17,42.83,10.36,85.65a5.31,5.31,0,0,1-1.17,4.35,4.79,4.79,0,0,1-2.92,1.66c-.48.08-1,.12-1.46.18Z" transform="translate(-369.75 -21.25)"/><path class="cls-3" d="M990.88,171l156.69-18.93c1.87-.23,1.61-.45,1.83,1.38q5.05,41.81,10.1,83.59c.22,1.79.42,1.55-1.33,1.76L844.42,276.75c-1.7.21-1.49.4-1.7-1.28q-5.07-41.91-10.12-83.83c-.21-1.67-.35-1.43,1.34-1.64Z" transform="translate(-369.75 -21.25)"/><path d="M1040.3,190.8l-5.89.71c-.93.1-.94.09-1.06-.83-.18-1.38-.35-2.76-.5-4.14-.1-.93-.09-.95.84-1.07,2.6-.33,5.2-.63,7.8-.95,5-.6,9.91-1.18,14.86-1.81a2.52,2.52,0,0,1,2.12.61c1.71,1.4,3.46,2.75,5.21,4.09a1.75,1.75,0,0,1,.75,1.31q.91,7.74,1.87,15.48a1.77,1.77,0,0,1-.4,1.45q-2.16,2.68-4.24,5.41a1.84,1.84,0,0,1-1.42.81c-1.34.12-2.68.31-4,.48-.25,0-.62-.06-.7.31a.79.79,0,0,0,.3.87l.77.61c3.72,2.88,7.42,5.78,11.16,8.64a2.36,2.36,0,0,1,1,1.82c.13,1.5.34,3,.54,4.51.07.5-.06.75-.6.81q-2.74.3-5.48.66c-.53.07-.74-.09-.78-.62-.08-1.06-.26-2.12-.29-3.18a2.14,2.14,0,0,0-1-1.71c-4.48-3.5-8.94-7-13.41-10.55a12.08,12.08,0,0,0-1.21-.73c1.33-2,2.55-3.77,3.74-5.58a1.37,1.37,0,0,1,1.15-.55l6.58-.79c.24,0,.49-.08.73-.09.62,0,.91-.28.76-.92,0-.2,0-.41-.07-.61q-.92-7.62-1.84-15.23c0-.28-.07-.57-.11-.85a.42.42,0,0,0-.52-.38l-.73.08-13.89,1.68-.73.09a.42.42,0,0,0-.38.52c0,.37.09.73.13,1.1q2.34,19.43,4.69,38.86c.2,1.68.4,1.47-1.29,1.68-1.38.18-2.76.34-4.14.5s-1.21.22-1.38-1.12c0,0,0-.08,0-.12q-2-16.76-4.06-33.51a2.31,2.31,0,0,1,.54-2c1.28-1.5,2.48-3.05,3.7-4.59C1039.68,191.66,1039.91,191.33,1040.3,190.8Z" transform="translate(-369.75 -21.25)"/><path d="M1023.69,211c.68,5.6,1.34,11.21,2,16.81a2.4,2.4,0,0,1-.53,2c-1.38,1.66-2.71,3.38-4,5.1a2,2,0,0,1-1.5.88q-8.1.94-16.2,2a1.91,1.91,0,0,1-1.58-.41q-2.65-2.18-5.39-4.26a1.92,1.92,0,0,1-.76-1.44q-2-17.05-4.13-34.11a1.94,1.94,0,0,1,.44-1.57q2.15-2.67,4.23-5.42a1.93,1.93,0,0,1,1.42-.8q8-.93,16.08-1.94a2.2,2.2,0,0,1,1.79.52c1.68,1.37,3.39,2.71,5.12,4a2.27,2.27,0,0,1,1,1.73C1022.31,199.75,1023,205.4,1023.69,211Z" transform="translate(-369.75 -21.25)"/><path d="M920.72,230.56c.38,3.13.75,6.26,1.14,9.38.21,1.74-.05,1.64,1.83,1.42l11.7-1.42.6-.07c1-.14,1-.15.91-1.13-.28-2.4-.57-4.79-.86-7.19q-.52-4.26-1-8.53c-.16-1.31,0-1.28-1.4-1.12-4.42.54-8.85,1-13.27,1.62a2.87,2.87,0,0,1-2.45-.7c-1.6-1.34-3.26-2.61-4.92-3.87a1.91,1.91,0,0,1-.81-1.42c-.38-3.41-.8-6.82-1.23-10.23a1.8,1.8,0,0,1,.39-1.46c1.45-1.82,2.88-3.67,4.29-5.52a1.79,1.79,0,0,1,1.32-.76q8.4-1,16.8-2a1.56,1.56,0,0,1,1.27.27c2,1.62,4,3.23,6.07,4.89a2.52,2.52,0,0,1-1.12.22l-20.58,2.49c-.25,0-.49.05-.73.09-.91.13-.93.13-.82,1.07q.6,5,1.21,10c.12,1,.14,1,1.14.87q6.87-.81,13.76-1.67a2.36,2.36,0,0,1,2,.55c1.66,1.39,3.37,2.73,5.09,4a1.92,1.92,0,0,1,.8,1.42q.95,8.16,2,16.32a1.84,1.84,0,0,1-.41,1.46q-2.08,2.65-4.11,5.35a1.88,1.88,0,0,1-1.39.84c-5.08.58-10.16,1.2-15.23,1.83a1.77,1.77,0,0,1-1.45-.42c-1.78-1.44-3.57-2.87-5.38-4.27a1.73,1.73,0,0,1-.75-1.32c-.09-1.1-.25-2.19-.39-3.28a1.34,1.34,0,0,1,.25-1.15c1.75-2.1,3.49-4.22,5.24-6.33A.52.52,0,0,1,920.72,230.56Z" transform="translate(-369.75 -21.25)"/><path d="M1132.86,179.61l-1.45.18-20.47,2.47-.73.09c-.89.13-.91.13-.82,1,.4,3.41.82,6.82,1.24,10.23.1.83.13.84,1,.74,4.59-.55,9.18-1.08,13.77-1.68a2.6,2.6,0,0,1,2.22.63c1.59,1.35,3.24,2.63,4.89,3.9a2.05,2.05,0,0,1,.88,1.51q.94,8.1,1.95,16.2a1.93,1.93,0,0,1-.39,1.58c-1.43,1.79-2.82,3.61-4.2,5.44a1.64,1.64,0,0,1-1.21.7q-7.68.9-15.35,1.86a1.64,1.64,0,0,1-1.34-.4q-2.73-2.19-5.49-4.33a1.57,1.57,0,0,1-.7-1.22c-.1-1.1-.26-2.19-.39-3.29a1.27,1.27,0,0,1,.16-1.05l5.61-6.88a1.56,1.56,0,0,1,.36,1.11c.37,3,.72,6,1.1,9,.12,1,.14,1,1.13.9q6.45-.76,12.91-1.56c1-.13,1.06-.14.93-1.22q-.95-7.92-1.91-15.84c-.13-1-.15-1-1.21-.93-4.51.54-9,1.07-13.52,1.66a2.65,2.65,0,0,1-2.23-.65c-1.67-1.38-3.39-2.7-5.11-4a1.76,1.76,0,0,1-.74-1.32q-.6-5.11-1.24-10.23a1.81,1.81,0,0,1,.38-1.47c1.45-1.82,2.89-3.66,4.29-5.52a1.91,1.91,0,0,1,1.44-.78q8.28-1,16.57-2a2,2,0,0,1,1.68.47C1128.78,176.41,1130.71,177.91,1132.86,179.61Z" transform="translate(-369.75 -21.25)"/><path d="M957.35,200.82l-5.58.67c-1,.11-1,.1-1.11-.89-.18-1.42-.32-2.84-.52-4.26-.09-.58.09-.81.68-.87,1.26-.12,2.51-.29,3.77-.45,6.37-.77,12.75-1.52,19.12-2.32a2.41,2.41,0,0,1,2,.56c1.67,1.38,3.39,2.7,5.11,4a2,2,0,0,1,.88,1.51q.94,8.1,2,16.19a1.93,1.93,0,0,1-.44,1.57c-1.39,1.72-2.76,3.46-4.09,5.22a2.19,2.19,0,0,1-1.62.91c-4.87.56-9.74,1.16-14.61,1.75-.29,0-.57.08-.86.1-.47,0-.64.27-.57.73,0,.28.07.57.11.85q.88,7.42,1.79,14.86l.09.73c.08.89.08.91-.75,1-1.74.23-3.49.41-5.23.65-.63.09-1-.06-.94-.72a6,6,0,0,0-.07-.61c-1.35-11.13-2.68-22.25-4.06-33.37a2.58,2.58,0,0,1,.64-2.21c1.51-1.77,3-3.6,4.41-5.41Z" transform="translate(-369.75 -21.25)"/><path d="M861.2,212.44l-5.43.65c-1,.11-1,.1-1.1-.9-.18-1.38-.35-2.76-.5-4.14-.1-.85-.08-.87.79-1,1.62-.21,3.25-.4,4.87-.6l17.54-2.12c.29,0,.57,0,.85-.1.46-.08.68.08.74.56.17,1.58.36,3.17.57,4.75.06.45-.06.7-.55.73s-.81.1-1.21.15l-14.26,1.72c-1,.12-1,.13-.87,1q.92,7.66,1.85,15.34c0,.16.07.3.12.52.4-.12.54-.43.73-.67,1.08-1.38,2.17-2.76,3.23-4.17a1.64,1.64,0,0,1,1.21-.7c3.45-.39,6.9-.82,10.35-1.23.9-.11.91-.09,1,.86.17,1.34.34,2.68.49,4,.11,1,.11,1-.88,1.13l-11.69,1.42-3.29.4c-1.08.13-1.09.14-1,1.17q1,8,1.93,15.95c.12,1,.14,1,1.14.88l13.65-1.65c.57-.07,1.14-.12,1.7-.21s.74.11.8.64c.17,1.54.36,3.08.56,4.62.06.47-.1.7-.57.73-.24,0-.48.06-.73.08l-21.19,2.57c-.25,0-.49,0-.73.08-.47.09-.69-.11-.71-.57,0-.24-.06-.48-.09-.73q-2-16.75-4.07-33.5a2.72,2.72,0,0,1,.66-2.21C858.57,216.15,859.87,214.27,861.2,212.44Z" transform="translate(-369.75 -21.25)"/><path d="M1082.66,207.06l-2.37-19.61c0-.28-.09-.56-.1-.85,0-.5-.3-.6-.74-.54-1,.13-2,.24-2.92.36-2.07.25-4.14.51-6.21.75-.91.1-.92.09-1-.84-.18-1.42-.32-2.85-.53-4.26-.09-.64.11-.93.75-.93.2,0,.4,0,.61-.07l25.45-3.08.48-.06c.92-.08.93-.08,1,.85.18,1.42.32,2.85.53,4.26.1.64-.1.86-.73.93-2.77.31-5.52.66-8.28,1l-.61.07c-1,.14-1,.14-.92,1.1l.12,1q2.33,19.17,4.63,38.35c0,.32.07.65.12,1s-.06.69-.54.74c-1.87.22-3.74.44-5.6.68-.48.06-.68-.12-.71-.58,0-.29-.07-.57-.1-.85Z" transform="translate(-369.75 -21.25)"/><path d="M906.83,225.3c-1.66,2.15-3.21,4.16-4.74,6.17a1.13,1.13,0,0,1-.84.42l-13.59,1.64c-.24-.28,0-.43.06-.57l4.18-5.45a1.52,1.52,0,0,1,1.08-.71c4.43-.51,8.85-1.05,13.27-1.58A2.82,2.82,0,0,1,906.83,225.3Z" transform="translate(-369.75 -21.25)"/><path class="cls-3" d="M1016.83,211.92l2,16.43c0,.28.06.57.1.85.08.47-.13.68-.58.72-.28,0-.57.07-.85.11l-13.27,1.6c-.24,0-.49,0-.73.09-.5.09-.79-.08-.82-.61,0-.25,0-.49-.08-.73q-2-16.56-4-33.11c0-.16-.05-.33-.06-.49-.08-.91-.08-.92.86-1l14.24-1.72c1-.12,1-.11,1.16,1Q1015.8,203.46,1016.83,211.92Z" transform="translate(-369.75 -21.25)"/><path class="cls-3" d="M961.29,223.34a2.13,2.13,0,0,1-.14-.85l-2.49-20.56a6,6,0,0,0-.07-.61c-.09-.46.09-.7.57-.72.12,0,.24,0,.36,0l14.24-1.72c.92-.11.94-.1,1,.82q1,8,1.94,16.06c.11.93.1.95-.82,1.06-3.08.38-6.16.77-9.25,1.11a2.21,2.21,0,0,0-1.6.93C963.86,220.35,962.57,221.82,961.29,223.34Z" transform="translate(-369.75 -21.25)"/><path class="cls-4" d="M1215.75,628.14c-1,1.41-.87,2.62-1.12,3.74A21.73,21.73,0,0,1,1190,648.43c-1-.17-2-.33-3.06-.56a28.46,28.46,0,0,0-16,1,32.23,32.23,0,0,1-42-23.18c-2.74-12,.41-22.58,9.32-31.27,1.27-1.25,2.63-2.39,4.07-3.69-2.42-1.25-4.55-1-6.77-.71-5.81.75-11.59,1-17.29-1-14-4.78-23.33-18.21-22.45-32.47.92-14.78,11.81-27.6,26.16-30.54,8.82-1.8,17.32-.15,25.38,3.51,16.44,7.47,26.83,20.39,32.43,37.27a20.59,20.59,0,0,1-1.84,16.92c-.56,1-1.16,2-1.87,3.2l5.79,1.91c1.11-.56.89-1.41,1-2.12,1.61-13,8.4-22.27,20.45-27.09,12.34-4.94,23.91-2.83,34.17,5.74,12.55,10.5,18.72,24.19,19.83,40.32a59.3,59.3,0,0,1-.64,15.11c-1.66,8.79-6.67,14.85-15.23,17.5s-15.84.3-22-6C1218.23,631,1217.09,629.65,1215.75,628.14Z" transform="translate(-369.75 -21.25)"/><path class="cls-5" d="M938.57,492.41a5.1,5.1,0,0,1,1.64,3.83A4.06,4.06,0,0,1,938.57,492.41Z" transform="translate(-369.75 -21.25)"/><path class="cls-5" d="M940.21,496.24a1.47,1.47,0,0,1,.73,1.6A1.25,1.25,0,0,1,940.21,496.24Z" transform="translate(-369.75 -21.25)"/><path class="cls-6" d="M630.55,848.66c6.3-1.51,12.75-2.09,19.15-3,17-2.48,34-4.82,51.09-7.19a9.23,9.23,0,0,0,4.18-1.87c13.24-9.53,28.15-14,44.33-14.47A116.28,116.28,0,0,1,775.57,824a4.51,4.51,0,0,0,3-.06c3.6-1.72,7.23-3.38,10.82-5.45-22.61-1.86-45.26-2.51-67.84-4.11-7.33-1.23-11.55-7.62-9.66-15a2.84,2.84,0,0,0-1.31-3.52q-30.15-2-60.28-4.08c-13-.9-26-1.87-39-2.83-1.4-.1-2.87.05-4.13-.79s-2.78-1.29-3.81-2.47c-2.66-3-5.21-6.23-3.87-10.64,1.53-5,4.69-8.47,10.06-9.51,5.61-1.07,11.34-1,17-1.41,17-1.3,34.09-2.28,51.13-3.46,20.13-1.4,40.26-2.92,60.4-4.32,16.91-1.18,33.83-2.26,50.74-3.39,3.87-.26,7.74-.56,11.62-.78,1.43-.09,2.41-.37,2.72-2.06a125.84,125.84,0,0,1,16.32-42.94,6.5,6.5,0,0,0,.36-1.35c-3.67-.28-7.22-.63-10.78-.81-8.27-.41-16.55-.7-24.82-1.13C767.84,703,751.43,702,735,701.13c-8.53-.45-17.07-.78-25.6-1.16a9.79,9.79,0,0,1-4.19-.59c-5.26-1.63-9.73-7.21-9.41-11.76.4-5.63,5.29-10.46,11.42-11.24a2.54,2.54,0,0,0,1.08-.34c8.77-.52,17.54-1.09,26.31-1.57q27.87-1.53,55.74-3c1.94-.11,3.88-.18,5.81-.26,2.05-1.58-.23-1.68-.82-2.1-5.53-3.93-7.09-10.15-3.81-15.91,2.07-3.63,5.55-5.14,9.44-5.93q23.67-1.26,47.34-2.53c22.63-1.24,45.27-2.42,67.89-3.86,4.35-.28,8.62-1.68,12.95-2.47,21.33-3.88,42.75-4,64.24-1.57,6.18.71,12.27,1.88,18.36,3.15a16.05,16.05,0,0,1,12.34,10,289.78,289.78,0,0,0,19.54,37.11c.34.55.71,1.09,1,1.66.86,1.57,1.75,2.12,3.7,1.21a108.07,108.07,0,0,1,30.85-9c21-3,41-.22,60.06,9.37a13.25,13.25,0,0,1,6.9,7.55c.83,2.34.9,2.37,3.14,1.3,11.86-5.71,24.37-9.35,37.22-12.09,6.19-1.31,11.4-.39,16.29,3.72a129.58,129.58,0,0,0,13.78,9.45,4.38,4.38,0,0,0,4,.81c12.93-3.85,25.63-8.28,37.74-14.32,1.83-.91,2.29-1.78,1.62-3.87-5.21-16.17-1-30.64,8.44-44a16.36,16.36,0,0,0,3.17-7.67A29,29,0,0,1,1286.62,609c15.31-8.73,37-6.46,50.26,5.15,3.93,3.43,7,7.53,10.21,11.66,3,4,7.84,6.35,10.82,10.5,1.43,2,2.39,4.62,4.27,5.91s4.78.38,7.22.79a36.35,36.35,0,0,1,9.68,2.77,13.76,13.76,0,0,0,6.75,1.28,41.83,41.83,0,0,1,17.2,2.37,33.27,33.27,0,0,1,17.18,14.5c6.53,11.06,5.11,26.23-7.72,36a41.47,41.47,0,0,1-8.66,5.16,6.71,6.71,0,0,0-3.39,3c-9.22,16-23.47,23.54-41.52,24.64-3.22.19-6.69-.55-9.61.43s-5,3.61-7.49,5.43a116.25,116.25,0,0,1-28.67,15.39c-1.67.6-2.81,1.23-3.19,3.3-2.38,12.87-10.55,21-22.07,26.19-7.15,3.24-14.8,4.66-22.43,6.11-15,2.86-30,5.76-44.67,10.19-18.84,5.7-36.79,13.25-52.53,25.4a88,88,0,0,0-28.58,37.12c-3,7.38-6.52,9.62-14.63,9.62H636.7a18,18,0,0,1-6.15-.68C625.11,869,622,865,622,860.11,622,854.94,624.91,851,630.55,848.66Z" transform="translate(-369.75 -21.25)"/><path class="cls-6" d="M1041.57,591.76c12.46-.17,22.47,3.76,31.52,10.19,7.05,5,7.53,14,1.37,19.3a12.88,12.88,0,0,1-5.56,2.6c-1.89.46-3.79.87-5.65,1.4a33,33,0,0,0-14.32,8.2A22.72,22.72,0,0,1,1010.26,616c.49-8.51,4.62-15,12-19.23A36.6,36.6,0,0,1,1041.57,591.76Z" transform="translate(-369.75 -21.25)"/><path class="cls-7" d="M1105.68,558.48a23.37,23.37,0,0,1,27.53-22.88c15.32,2.71,25.86,11.81,33.35,25a42.49,42.49,0,0,1,4,9.26,11.44,11.44,0,0,1-3.26,12.1,11.27,11.27,0,0,1-12.26,2.5c-3.78-1.34-7.45-2.94-11.46-3.62a29.44,29.44,0,0,0-10-.11c-8.68,1.5-16.14-.71-22.17-7.34A21.43,21.43,0,0,1,1105.68,558.48Z" transform="translate(-369.75 -21.25)"/><path class="cls-7" d="M1162.64,595.16a42.28,42.28,0,0,1,21.43,5.9,53.63,53.63,0,0,1,19.63,20c4.4,7.79,0,16.58-8.64,18-2.13.35-4.12-.23-6.14-.61a41.33,41.33,0,0,0-13.08-.67c-3.13.39-6,1.56-9,2.43a22.94,22.94,0,0,1-29-19.23,23.51,23.51,0,0,1,21.7-25.82C1160.57,595.1,1161.61,595.16,1162.64,595.16Z" transform="translate(-369.75 -21.25)"/><path class="cls-7" d="M1247.69,613c-.34,2.85-.2,5.19-.84,7.47-1.28,4.64-4.09,7.74-8.8,8.91s-8.65-.37-11.87-3.89c-1-1-1.77-2.22-2.7-3.3a37.54,37.54,0,0,0-15.83-10.8,22.7,22.7,0,0,1-14.06-28.32,23.2,23.2,0,0,1,36.12-11.24c10.86,8.36,16.67,19.56,17.69,33.2C1247.61,607.85,1248.22,610.69,1247.69,613Z" transform="translate(-369.75 -21.25)"/><path class="cls-4" d="M1039.51,724.39c-7.24,11.62-14.57,23.18-22.49,34.35-8.6,12.12-17.57,24-27.81,34.77-.76.16-1.14-.06-.91-.9,2.57-7.2,5-14.47,5.84-22.1,1.88-16.59.16-32.63-8.51-47.31-8.2-13.88-20.67-21.6-36.45-23.73-18.59-2.51-35.75,1.94-51.44,12-12,7.7-20,18.17-22.39,32.6-1.28,7.67-2.82,15.28-2.73,23.09a36.4,36.4,0,0,0,2.21,12.56c2.36,6.28,5.86,8.73,12.59,8.94,18.79.58,33.32-8.85,40.5-26.25a77.33,77.33,0,0,0,3.55-11.89,5.18,5.18,0,0,0-1.34-5c-6.66-7.6-16.09-8.83-24.4-3.08a39.74,39.74,0,0,0-8.45,8.53,3.91,3.91,0,0,0-.61,4,12,12,0,0,0,8.92,7.78c.14,0,.37-.3.56-.47a2.59,2.59,0,0,0,.08-1.14c-1-3.6-.88-6.9,2.68-9.15,4.14-2.62,8.44-4.41,13.39-2.27a2.78,2.78,0,0,1,1.59,1.58,42.39,42.39,0,0,1-8,17.94C908.27,779,898,782.41,886,781.74a4.08,4.08,0,0,1-3.37-2.27,20.58,20.58,0,0,1-2.5-7.7,49,49,0,0,1,.15-13.52c.86-7.32,2-14.6,4.61-21.55.46-.45.34-1.18.75-1.65l0,0a10.77,10.77,0,0,0,1.58-2.57,15.44,15.44,0,0,0,2.29-3c8.87-11,21.19-14.63,34.47-16.41,7.52-1,14.93-1.12,22.32.9,11.65,3.18,19.45,10.52,23.28,21.88,4.52,13.39,3.35,26.85-.41,40.15-6.52,23.08-18.81,43-33.85,61.46-2.29,2.8-4.89,5.32-6.95,8.3-10,3.07-20.08,5.65-30.73,5.17-7.11-.33-14.25-.2-21.37,0-11.56.26-21.56-3.93-30.52-10.74-9.82-7.47-16-17.49-19.11-29.4a151.92,151.92,0,0,1-5-31c-1-18.84,1.88-36.85,10.15-53.92,7.38-15.24,18.26-27.54,31.55-37.84,20.16-15.62,43-25.17,67.92-30a187.61,187.61,0,0,1,45.62-2.89,103.81,103.81,0,0,1,15.42,1.63,41.35,41.35,0,0,1,6.8,14.62,38.67,38.67,0,0,0-13.78,8.51c-.08,1.29-.08,1.29,1.49.75,4.85-1.64,9.72-3.2,14.85-3.67,3.67,3.39,5.08,8.14,7.42,12.33-5.35,2.33-9.44,6.21-13,10.7-.31,1,.1,1.19,1,1,4.8-2.35,9.5-4.92,14.79-6.09,3.33,3.22,6.46,6.59,7.83,11.18a35,35,0,0,0-13.07,14.44c5.64-3.53,11.23-7.06,17.5-9.32,2.82.57,3.9,3.27,5.76,5C1033,719,1036.84,721,1039.51,724.39Z" transform="translate(-369.75 -21.25)"/><path class="cls-8" d="M1286.91,694.73c3.43-.34,7,.68,10.39-1a6,6,0,0,0-2.72-1.4c-15.85-6.54-23.09-28.26-7.49-44.66,2-2.09,4.37-2.45,7.26-1.86-.68-2.45-1.79-4.36-2.19-6.52a14.13,14.13,0,0,1-.11-5.38c1.22-6.22,4.56-9.28,11.5-10.17,10.48-1.34,18.77,2.38,24.71,11.15a40.34,40.34,0,0,1,5.37,12.82c.18.7,0,1.61,1,2,1.69-1.16,1.48-3.37,2.44-5,8.11,4.64,10.68,13.29,7.2,24.66,1.72,0,2.91-.94,4.15-1.74.6-.4,1.11-1.25,2-.44a2,2,0,0,1,.5,2.74,10.25,10.25,0,0,1-2.25,2.65,25,25,0,0,1-7.86,4.11,3.23,3.23,0,0,1-4-1.31,20.15,20.15,0,0,1-3-7.08c-1.29-4.9-1.55-10-2.22-14.95-.89-6.61-3.71-12.35-7.53-17.65-4.46-6.2-10.44-8.17-18.14-6.43-4.51,1-7,4.14-8,8.52.83,2.59.53,5.21.19,7.82h0a1,1,0,0,0-.68.89c-5.72,5.86-9.82,12.57-11.41,20.74-1.74,8.92,1.47,14.19,10.2,16.55,4.27,1.16,8.66,1.39,13,1.9a39.57,39.57,0,0,1,8.67,2c3.1,1.1,5.37,3.06,6.18,6.57a17.94,17.94,0,0,1-8.1,2c-.13,0-.26.14-.37.12-9.23-1.34-16.55,3.29-24.2,7.35-15.52,8.24-31.31,15.93-48,21.58a1.06,1.06,0,0,0-.55.5l-5.23,1.86a6.21,6.21,0,0,0,4.08,1.11,70.52,70.52,0,0,0,12.31-.47c3.92-.51,7.92.54,11.83,1.28a38,38,0,0,1,14.32,5.48c3.45,2.32,6.56,5,7.72,9.27,1.46,5.16-1.22,8.74-4.78,11.77-3.74,3.18-8.33,4.67-13.1,5.52-15,2.67-30.2,4.58-45.15,7.78-20.08,4.3-39.61,10.22-58,19.51-17.45,8.82-32.62,20.52-44.44,36.26a92.84,92.84,0,0,0-12.08,21.2c-.66,1.63-1,3.56-2.88,4.41-1.17,0-2.33.11-3.5.12H955.12l-.06-.45c3.46-1.3,7-2.49,10.36-3.9,35.19-14.57,63.35-37.9,85.54-68.66a309.41,309.41,0,0,1,20.93-26.55,11.56,11.56,0,0,1,2.74-2.71c11.15.8,22.31,1.51,33.46,2.41a3.44,3.44,0,0,1,2.42,1l-7.18,14c-.34.46-.2,1.14-.67,1.54h0c-4.81,10.5-9.12,21.16-9.06,33,.06,11.26,1.15,12,11.81,8.72,18.8-5.81,36.51-13.82,52.55-25.34-1.23-.88-1.23-.93-2.23-.83-5.93.61-11.79,1.61-17.64,2.73-10.17,1.94-20.16,4.56-30.37,7.42-.29-3.62.6-6.85,1.22-10.09,3.3-17,10.08-32.29,21.47-45.49,10.91-12.63,24.82-20.56,40.31-26,4-1.42,8-2.91,12.31-3.42,5.36,3.12,10.3,6.9,15.82,9.75,7.47,3.86,15.12,7.17,23.54,8.35l4,.86c.37,0,.44-.22.25-.54s-.17-.31-.22-.31c-.76-.75-1.85-1.17-2.34-2.2.48-1.77,2.09-1.7,3.41-2,17.55-4.57,34.52-10.57,49.91-20.42C1280.71,699.71,1284.22,697.77,1286.91,694.73Z" transform="translate(-369.75 -21.25)"/><path class="cls-3" d="M1107.37,850.88a103.89,103.89,0,0,1,14.35-26.48,118.13,118.13,0,0,1,24.58-24c12.7-9.37,26.78-16,41.5-21.52,16.63-6.22,33.89-10,51.25-13.26,10.11-1.92,20.35-3.21,30.51-4.85a30.43,30.43,0,0,0,11.19-4.1c4.59-2.83,6.73-7,7-12.21,4.36,9.82.43,14.93-5.62,18.42-5.82,3.36-12.37,4.43-18.83,5.7-19.54,3.82-39.09,7.57-58,14-19.23,6.59-37.36,15.23-53.13,28.3-12.43,10.31-22.48,22.51-29.33,37.2-1,2.2-2.22,3.11-4.66,2.95C1114.62,850.81,1111,850.92,1107.37,850.88Z" transform="translate(-369.75 -21.25)"/><path class="cls-9" d="M928.34,845.75c-1.1-.67-.38-1.27.1-1.83,2.08-2.48,4.22-4.9,6.27-7.41C948,820.26,959.08,802.75,966,782.79c3.74-10.85,6-21.95,5.23-33.51a45.34,45.34,0,0,0-4.62-17.9c-4.81-9.4-12.55-15.32-22.82-16.93-15.87-2.48-31.2-.43-45.22,8.09a41.18,41.18,0,0,0-9.1,7.81c-.64.15-1.08.11-.65-.71a46.38,46.38,0,0,1,20.68-16.41,76.09,76.09,0,0,1,28.65-6.16c21.39-.13,38.07,12.42,44,33,3.26,11.29,2.46,22.52-.41,33.74A112.73,112.73,0,0,1,971.14,800a156.55,156.55,0,0,1-28.59,37.55C938.45,841.51,934,844.58,928.34,845.75Z" transform="translate(-369.75 -21.25)"/><path class="cls-4" d="M1114.27,731.91a65.4,65.4,0,0,0,4.57-14.78c.5-2.87.41-3.07-2.12-4.14-14.07-6-28.27-6.74-42.69-1.22a14.52,14.52,0,0,0-8.15,7.12c-14.53,27.09-32.25,51.89-54.07,73.63a233.26,233.26,0,0,1-42.14,33.57,1.8,1.8,0,0,1-.88.58,2.1,2.1,0,0,1-.62.26.63.63,0,0,1-.94,0,78,78,0,0,1,12.91-14.39c11.74-10.27,21.88-22.07,31.41-34.39,16-20.64,29.88-42.62,42.76-65.28a8.65,8.65,0,0,1,.67-.92c4.74-2.88,10.14-3.88,15.42-5.07,16.63-3.75,33.31-4.83,50-.16,1.83.51,3.9.67,4.94,2.67a48.11,48.11,0,0,1-10.23,23.39C1114.37,732.9,1114,732.74,1114.27,731.91Z" transform="translate(-369.75 -21.25)"/><path class="cls-9" d="M1332.54,681.77c-2.3,3.56-4.68,4.23-7.94,2.21a36.29,36.29,0,0,0-16.18-4.92c-3.86-.35-7.76-.55-11.49-1.75s-4.65-2.59-4.48-6.61c.56-13.53,13.31-25.17,26.68-24.53a3.66,3.66,0,0,1,3.85,2.89,45.28,45.28,0,0,1,2,10.27,59.92,59.92,0,0,0,2.73,14.06,2.47,2.47,0,0,1-.78,3c-1.54,1.63-2.94,3.48-1.7,5.87.79,1.52,2.81,1.28,6.27-.5C1331.83,681.58,1332.19,681.41,1332.54,681.77Z" transform="translate(-369.75 -21.25)"/><path class="cls-10" d="M829.67,833.63c4.07,4.67,8,9.46,13.19,13,1.87,1.29,3.76,2.55,5.72,3.88-1,.8-1.88.46-2.71.46q-57.25,0-114.51,0c-.64,0-1.29-.09-1.93-.14,0-1.55,1.31-1.84,2.34-2.18,14-4.64,28.29-5.75,42.78-2.33a5.24,5.24,0,0,1,2.07,1l.19.11-.06.22c2.37.24,3.91-1.6,5.9-2.33A183,183,0,0,1,824.42,833C826.19,832.71,828,832.57,829.67,833.63Z" transform="translate(-369.75 -21.25)"/><path class="cls-8" d="M1374.05,707c-8.08,5.24-17,5.44-26.16,4.46a4.09,4.09,0,0,1-.76-.15c-3.05-.84-5.81-.56-8,2.08-13,10.6-27.91,17.19-43.86,21.76-1.5.43-3,1-4.51.11a4.87,4.87,0,0,1-1.86-1.93c.25-.89,1.08-1,1.75-1.19a114.49,114.49,0,0,0,36.19-19,3.86,3.86,0,0,1,3.14-1c1.52.19,1.55,0,4.15-1.39-3.83-2.08-6.28-5.24-8.56-9.12,6.23-2.35,11.35-5.67,14.76-11.57,1,3.1,1.58,5.89,3.06,8.35.71,1.2,1.46,2,3,1.82,8.68-.87,16.57,1.91,24.31,5.36.82.36,1.56,1,2.55.77C1374.15,705.88,1374.19,706.31,1374.05,707Z" transform="translate(-369.75 -21.25)"/><path class="cls-3" d="M1158,784.13c-2.26,3.11-5.55,5-8.69,7-16.09,10.15-33.66,16.78-52,21.66-2.57.68-2.5.65-3.31-2-2.78-9.3-1.28-18.38,1.32-27.39a86.57,86.57,0,0,1,5.44-13.23c.45-.93.81-1.94,1.89-2.35-.87,4.68-2.64,9.13-3.46,13.84a82.7,82.7,0,0,0-1.06,20c.19,2.78.3,2.81,3,2.31,14.67-2.68,28.6-7.72,42.27-13.53C1148.29,788.36,1153.11,786.23,1158,784.13Z" transform="translate(-369.75 -21.25)"/><path class="cls-11" d="M1393.62,683.09a9.26,9.26,0,0,0,.94-.66c2.08-1.84,4.26-3.83,3.31-6.9-1-3.38-3.8-5.19-7.22-5.7a20.59,20.59,0,0,0-7.33.36c-7.28,1.57-13.94,4.73-20.66,7.78-1.88.86-3.73,1.79-5.67,2.52s-4.26,1.18-6.6-.19c5-4.36,10.51-8.57,7-16.77,5.76-2.1,11.1-1.35,16.58,1.63-1.36,1.93-3.19,3.27-4,5.62,1.12.29,1.91-.37,2.75-.7,5.58-2.22,11.28-3.85,17.37-3.39,4.23.32,8.15,1.45,11.09,4.8,3.59,4.08,3.34,8-.81,11.42a26.43,26.43,0,0,1-11.14,5.26c-1.84.42-2.41-.31-1.9-2.06A9.47,9.47,0,0,1,1393.62,683.09Z" transform="translate(-369.75 -21.25)"/><path class="cls-12" d="M1110.51,752.18c-5.94-.26-11.88-.4-17.81-.81-5.53-.38-11-1-16.57-1.59a1.71,1.71,0,0,1-1.5-1,61,61,0,0,1,7.23-7,4,4,0,0,1,3.51-1.12,123.11,123.11,0,0,0,30.79,1.47c.34,0,.77-.17,1.12.65Z" transform="translate(-369.75 -21.25)"/><path class="cls-13" d="M1125.32,709.34c-14.37-5-29.07-5.48-44-3.37a137.49,137.49,0,0,0-23.71,5.56,3.91,3.91,0,0,1-2.63.37c1-3.2,3.3-4.89,6.44-6,19.54-7,39.2-8.53,59.14-1.86,1,.32,1.94.69,2.89,1.09C1126.1,706.21,1126.09,706.22,1125.32,709.34Z" transform="translate(-369.75 -21.25)"/><path class="cls-13" d="M1379.45,679.49c.3,4.37.91,8.86-1.4,13.11a19,19,0,0,1-3.81,4.84,3.13,3.13,0,0,1-3.83.76,56.14,56.14,0,0,0-20.19-4.86,2.16,2.16,0,0,1-2.29-2,7,7,0,0,1,0-3.72c2,.28,3.91,1.11,5.94,1,.92-.07,1.17.49,1.54,1.3,1.09,2.43,1.74,2.62,4.16,1.85a7.93,7.93,0,0,0,4.78-4.24c.44-.88.5-2,1.62-2.49,4-1.9,7.73-4.14,11.84-5.71A1.73,1.73,0,0,1,1379.45,679.49Z" transform="translate(-369.75 -21.25)"/><path class="cls-14" d="M1286.91,694.73c.85,1,.31,1.52-.53,2.15a121.79,121.79,0,0,1-16.33,10.43,175.19,175.19,0,0,1-44.24,16.26,11.31,11.31,0,0,0-1.77.75,5.27,5.27,0,0,1-3.08-2.64l7.06-2.1a231.85,231.85,0,0,0,40.39-15.66,80.12,80.12,0,0,0,13.53-8.31A4.79,4.79,0,0,1,1286.91,694.73Z" transform="translate(-369.75 -21.25)"/><path class="cls-14" d="M776.62,847.38c-3.5.37-6.82-.86-10.21-1.3a79.25,79.25,0,0,0-26,1.35,40.19,40.19,0,0,0-11,3.43,57.1,57.1,0,0,1-9.52-.05l.14-.53c6.56-4.36,13.92-6.55,21.6-7.79,11.22-1.82,22.34-.72,33.39,1.54C777.4,844.51,777.39,844.56,776.62,847.38Z" transform="translate(-369.75 -21.25)"/><path class="cls-15" d="M1242.76,725.9c1.88-2.16,4.73-2.47,7.12-3.61,5.57-2.67,11.37-4.88,17-7.5,10.16-4.76,20.57-9.12,30-15.16,4.62-3,9.1-4.17,14.36-3.46,1.52.2,3.09.13,4.63.18a4,4,0,0,1-3,.52c-3.76-.62-6.65,1.18-9.68,3-18,10.71-36.85,19.61-57.06,25.41A9.85,9.85,0,0,1,1242.76,725.9Z" transform="translate(-369.75 -21.25)"/><path class="cls-16" d="M829.67,833.63c-13.42,1-26.08,5.16-38.68,9.53-2.94,1-5.84,2.12-8.75,3.19-.9.47-1.6.59-1.52-.8,5.94-3.69,12.43-6.21,18.85-8.89,7.84-3.28,15.83-6.21,23.8-9.17,1.68-.62,2.62-.49,3.36,1.18S829,831.76,829.67,833.63Z" transform="translate(-369.75 -21.25)"/><path class="cls-14" d="M1222.38,726.51c-.93,1.63-2.29.76-3.42.48a92.42,92.42,0,0,1-31.14-14.43c-1.71-1.21-4.08-1.76-4.81-4.14a3,3,0,0,1,.7-.34c8.15-1.63,5.51-2.35,12.2,2.61C1204.22,716.84,1212.81,722.48,1222.38,726.51Z" transform="translate(-369.75 -21.25)"/><path class="cls-17" d="M999.09,671.42c-3-4.54-4.79-9.62-6.8-14.62l1.36,0,.24.06c3.17.58,6.33,1.24,9.52,1.71a3.53,3.53,0,0,1,3.12,2.4c1.08,2.61,2.38,5.11,3.6,7.68Z" transform="translate(-369.75 -21.25)"/><path class="cls-18" d="M1039.51,724.39a50.66,50.66,0,0,1-15.45-13.16c.71-.29,1.43-.56,2.13-.89,4.57-2.11,8.66-2.67,11.69,2.65.91,1.59,2.74,2.68,4.25,3.87a1.68,1.68,0,0,1,.41,2.62C1041.5,721.1,1040.51,722.75,1039.51,724.39Z" transform="translate(-369.75 -21.25)"/><path class="cls-17" d="M1009.07,689.34c-1-.25-1.41-1.06-1.83-1.84-1.87-3.49-3.72-7-5.59-10.49a71.75,71.75,0,0,1,10.35-.84c1.06,0,2,.1,2.62,1.18l4.35,8.3A63.48,63.48,0,0,0,1009.07,689.34Z" transform="translate(-369.75 -21.25)"/><path class="cls-15" d="M1290.81,735.21a118.67,118.67,0,0,0,24.13-8.3c8-3.68,15.85-7.62,22.78-13.16a4.14,4.14,0,0,1,1.46-.41c-3.22,4-7.49,6.71-11.61,9.58A95.57,95.57,0,0,1,1296,737.35C1292.78,738.15,1292.77,738.11,1290.81,735.21Z" transform="translate(-369.75 -21.25)"/><path class="cls-18" d="M1019.63,706.11a121.77,121.77,0,0,1-7.83-11.18,62.59,62.59,0,0,1,9.41-2.15,2.19,2.19,0,0,1,2.61,1c1.59,2.62,3.23,5.21,5,8.09A76.7,76.7,0,0,0,1019.63,706.11Z" transform="translate(-369.75 -21.25)"/><path class="cls-19" d="M923.89,751.39c-5.13-2.59-9.87-1.54-14.46,1.46a5.37,5.37,0,0,0-2.74,5.07c0,1.48.53,3.08-.54,4.45-.1-.23-.2-.47-.29-.71-1-2.72-3-5.61-1.16-8.36,2.38-3.51,5.64-6.38,10-7.3,3.55-.75,6.54.62,9.07,3.08C924.53,749.8,924.74,750.58,923.89,751.39Z" transform="translate(-369.75 -21.25)"/><path class="cls-20" d="M1298,645.71c-1.63-2.57-.34-5.21-.19-7.82.4.73.91.65,1.59.35a28.56,28.56,0,0,1,4.29-1.7c2.88-.74,4.59,0,7.15,3.1C1305.93,640.6,1302,643.2,1298,645.71Z" transform="translate(-369.75 -21.25)"/><path class="cls-21" d="M1393.62,683.09a18.63,18.63,0,0,1-6.24,3c-.41-2.16.19-4.39-.51-6.54-.32-1,.36-1.39,1.19-1.61a3.94,3.94,0,0,1,5,2.93C1393.26,681.62,1393,682.47,1393.62,683.09Z" transform="translate(-369.75 -21.25)"/><path class="cls-22" d="M780.72,845.55c.28.71.92.72,1.52.8-1.23,1.11-2.9,1.3-4.32,2-.51.25-.9-.21-1.17-.64C778.23,847.29,779.13,845.77,780.72,845.55Z" transform="translate(-369.75 -21.25)"/><path class="cls-23" d="M1114.27,731.91l.82.82a3.27,3.27,0,0,1-2.11,2.16A3.43,3.43,0,0,1,1114.27,731.91Z" transform="translate(-369.75 -21.25)"/><path class="cls-24" d="M888.79,729.64c.22.23.44.47.65.71a8.21,8.21,0,0,1-2.15,2.9,1.09,1.09,0,0,1-.15-1.36A4,4,0,0,1,888.79,729.64Z" transform="translate(-369.75 -21.25)"/><path class="cls-25" d="M997,701a2.25,2.25,0,0,1-.47.58c-.5.31-1.08,1-1.63.44s.15-1.12.52-1.59A2.41,2.41,0,0,1,996,700Z" transform="translate(-369.75 -21.25)"/><path class="cls-26" d="M1374.05,707l-.71-.65a4.48,4.48,0,0,1,3-1.62l.19.18A3.67,3.67,0,0,1,1374.05,707Z" transform="translate(-369.75 -21.25)"/><path class="cls-27" d="M986.8,680.68c-.28.22-.54.57-.85.64-.65.15-1.56.88-1.93.08s.59-1.19,1.29-1.47C985.58,680.63,986.25,680.54,986.8,680.68Z" transform="translate(-369.75 -21.25)"/><path class="cls-28" d="M887.14,731.89l.15,1.36c-.22.92-.63,1.67-1.68,1.83A4.42,4.42,0,0,1,887.14,731.89Z" transform="translate(-369.75 -21.25)"/><path class="cls-29" d="M988.3,792.61l.91.9c-.38.56-.67,1.67-1.49,1C987.09,794,987.73,793.15,988.3,792.61Z" transform="translate(-369.75 -21.25)"/><path class="cls-30" d="M1377.25,703.87c.2-.6,1-1.26,1.17-.88.57,1-.5,1.35-1.24,1.71A.61.61,0,0,1,1377.25,703.87Z" transform="translate(-369.75 -21.25)"/><path class="cls-31" d="M1226.38,726.52c.63.15,1.27.57,1,1.16s-.8.23-1-.31Z" transform="translate(-369.75 -21.25)"/><path class="cls-28" d="M885.65,735.05a1.61,1.61,0,0,1-.75,1.65C884.87,736,884.94,735.39,885.65,735.05Z" transform="translate(-369.75 -21.25)"/><path class="cls-3" d="M1102.66,767.74a1.35,1.35,0,0,1,.67-1.54A1.37,1.37,0,0,1,1102.66,767.74Z" transform="translate(-369.75 -21.25)"/><polygon class="cls-32" points="624.14 635.64 623.96 635.8 623.9 635.58 624.09 635.45 624.14 635.64"/><path class="cls-33" d="M967.23,826.88l.94,0a1.36,1.36,0,0,1-1.62.71l0,0A.68.68,0,0,1,967.23,826.88Z" transform="translate(-369.75 -21.25)"/><path class="cls-33" d="M966.55,827.64l-.31.35c0-.07,0-.17,0-.21a1.39,1.39,0,0,1,.28-.12Z" transform="translate(-369.75 -21.25)"/><path class="cls-33" d="M968.79,826.67a.86.86,0,0,1,.88-.58A.84.84,0,0,1,968.79,826.67Z" transform="translate(-369.75 -21.25)"/><path class="cls-34" d="M1377.25,703.87c0,.27,0,.55-.07.83a1.45,1.45,0,0,1-.65.16l-.19-.18A1.15,1.15,0,0,1,1377.25,703.87Z" transform="translate(-369.75 -21.25)"/><path class="cls-20" d="M1297.32,646.6a.83.83,0,0,1,.68-.89A.88.88,0,0,1,1297.32,646.6Z" transform="translate(-369.75 -21.25)"/><path class="cls-10" d="M720.05,850.28a.57.57,0,0,1-.14.53c-.31.13-.54,0-.48-.3C719.45,850.4,719.83,850.36,720.05,850.28Z" transform="translate(-369.75 -21.25)"/><path class="cls-35" d="M1046.79,611.53A42.9,42.9,0,0,0,1035.1,619a3.1,3.1,0,0,1-4.77-.35,3.4,3.4,0,0,1,1.29-5c3.52-2.13,7.47-2.69,11.51-2.62A35.09,35.09,0,0,1,1046.79,611.53Z" transform="translate(-369.75 -21.25)"/><path class="cls-36" d="M1142.21,561.43c-4.41-.48-8.73-1-13.15-.24a3.12,3.12,0,0,1-3.84-2.87,3.64,3.64,0,0,1,4.18-3.52A21.1,21.1,0,0,1,1142.21,561.43Z" transform="translate(-369.75 -21.25)"/><path class="cls-37" d="M1174.94,618.82c-4.39.09-8.6.38-12.64,1.93a4,4,0,0,1-.75.2c-2.14.33-3.88-.66-4.24-2.39a3.65,3.65,0,0,1,3.32-4A20.75,20.75,0,0,1,1174.94,618.82Z" transform="translate(-369.75 -21.25)"/><path class="cls-37" d="M1226,599.65a40.41,40.41,0,0,0-11.32-6.85c-2.36-1-3.14-2.88-2.22-4.57s3.4-2.28,5.39-.81A20.44,20.44,0,0,1,1226,599.65Z" transform="translate(-369.75 -21.25)"/><path class="cls-7" d="M1271.43,749.06c-9.47,8.66-20.89,13.13-33.31,15.45-1.7.32-3.08.16-3.87-1.61-.88-2-2.54-2.15-4.49-2.16-11.43,0-22.69,1.46-33.9,3.48a415.19,415.19,0,0,0-63.54,17.08c-1.74.6-2.87.46-4.13-.82a21.69,21.69,0,0,1-5.29-8,6.94,6.94,0,0,1,1-6.86A142.05,142.05,0,0,1,1158,730.85c.52-.37,1-.78,1.53-1.18.16-1.76-.9-1.13-1.75-.89l-2.93.16c-.87.11-2,1.12-2.29-.7a110.93,110.93,0,0,1,22.77-7.59c3.94-.91,8-.47,12-.21,2.7.18,5.37.78,8.08,1.06,8.08.86,14.61,4.94,20.62,10a117.62,117.62,0,0,1,21.44,22.9,4,4,0,0,0,4.52,1.85c9.88-1.53,19.53-3.79,28.66-8C1271.46,748,1271.63,748.35,1271.43,749.06Z" transform="translate(-369.75 -21.25)"/><path class="cls-38" d="M1152.56,728.24c.58.84,1.55.39,2.29.7a5.82,5.82,0,0,1-4.22.68A2,2,0,0,1,1152.56,728.24Z" transform="translate(-369.75 -21.25)"/><path class="cls-39" d="M1271.43,749.06l-.78-.8a3.12,3.12,0,0,1,2.69-1.22A2.81,2.81,0,0,1,1271.43,749.06Z" transform="translate(-369.75 -21.25)"/><path class="cls-40" d="M1157.78,728.78a13.39,13.39,0,0,1,1.7-.54c.41-.08,1.1-.32,1.2.29s-.53,1-1.16,1.14C1159.16,728.94,1158.38,729,1157.78,728.78Z" transform="translate(-369.75 -21.25)"/><path class="cls-9" d="M1153.29,766.68a97,97,0,0,1,7.37-15.61,121.91,121.91,0,0,1,15.94-21.9,5.27,5.27,0,0,1,4.33-2,59,59,0,0,1,14.41,1.69l-3.48,4.51A124.88,124.88,0,0,0,1176.7,759c-.66,1.5-1.31,2.59-3.1,3-6.14,1.51-12.23,3.21-18.35,4.82A1.85,1.85,0,0,1,1153.29,766.68Z" transform="translate(-369.75 -21.25)"/><path class="cls-9" d="M1184.65,759a117.34,117.34,0,0,1,13.51-22c.62-.82,1.29-1.61,1.95-2.41,3.1-3.8,3.14-3.85,7.17-.73,2.44,1.89,5.74,3.55,6.83,6.1,1.22,2.87-2.54,5.16-3.76,7.9-.95,2.11-2.15,4.11-3.21,6.17-.48.93-.9,1.82-2.13,2-6.61,1-13.22,2.12-19.83,3.17C1185.07,759.18,1184.94,759.07,1184.65,759Z" transform="translate(-369.75 -21.25)"/><path class="cls-13" d="M1158,741.39c-5.19,8.67-9.89,17.59-13,27.23a2.93,2.93,0,0,1-2,2.08q-4.62,1.49-9.22,3c-1,.34-2,.64-2.73-.54s-1.72-2.36-.91-3.92a10.22,10.22,0,0,1,.66-1,126.71,126.71,0,0,1,26.41-27.75C1157.86,740.33,1158.17,740.6,1158,741.39Z" transform="translate(-369.75 -21.25)"/><path class="cls-41" d="M1214.79,754.62a68.46,68.46,0,0,1,5-8.6,33.52,33.52,0,0,1,5.59,7.72C1222,754.58,1218.67,754.48,1214.79,754.62Z" transform="translate(-369.75 -21.25)"/><path class="cls-42" d="M1158,741.39l-.89-.85a3.58,3.58,0,0,1,2.32-1.67A3,3,0,0,1,1158,741.39Z" transform="translate(-369.75 -21.25)"/><path class="cls-6" d="M1044.32,506.12c12.45-.16,22.46,3.76,31.51,10.19,7.05,5,7.53,14.06,1.38,19.3a13.11,13.11,0,0,1-5.57,2.61c-1.88.46-3.78.86-5.65,1.39a33.1,33.1,0,0,0-14.31,8.2,22.89,22.89,0,1,1-26.7-36.68A36.74,36.74,0,0,1,1044.32,506.12Z" transform="translate(-369.75 -21.25)"/><path class="cls-35" d="M1049.53,525.89a42.7,42.7,0,0,0-11.69,7.52,3.1,3.1,0,0,1-4.77-.36,3.4,3.4,0,0,1,1.29-5c3.53-2.13,7.47-2.69,11.51-2.62A34.77,34.77,0,0,1,1049.53,525.89Z" transform="translate(-369.75 -21.25)"/><path class="cls-3" d="M1264.53,427.33c1.67,21.84-3.51,44.2-10.23,66.18-3,9.63-7.77,18.67-11.59,28a19.82,19.82,0,0,0-1.52,6.63c-.25,6.46-4.41,8.78-9.75,10.81-3.53,1.34-6.51,4.16-10.06,6.53l-1.39-3.73-.57.07c0,1.48,0,3,0,4.44,0,.75.45,1.9.12,2.18-6.35,5.26-2.37,12.68-4.15,18.83-.78,2.7-3.17,4.92-4.77,7.4-.62,1-1.05,2-1.74,3.41-.87-1-1.9-2.12-3.43-3.85-.17,4.43,2.19,8.93-3.69,11.66l1.62.55-3.53-2.28c-1.54,3.71-3,7.22-4.48,10.8-2.7-1.28-5.41-2.58-8.18-3.74a14.25,14.25,0,0,0-1,1.81c1.7,1.4,3.36,2.38,4.42,3.81a3.4,3.4,0,0,1-.16,3.32c-.82.76-2.83,1.34-3.61.85-4.1-2.55-8.61-4.88-11.73-8.41-2.9-3.27-4.23-7.95-6.26-12l1.3-.74c2,3.28,3.9,6.55,6.3,10.6.43-1.35,1.13-2.44.85-2.86-6.62-9.65-8.34-21.06-11.56-31.92a24.85,24.85,0,0,0-1.37-2.71v12l-1,.16c-1-4.17-2.13-8.31-2.85-12.53-1.18-7-1.86-14-3.16-21-.92-4.93-2.77-9.67-3.73-14.59-1.35-6.95-2.06-14-3.42-21-.93-4.74-2.68-9.31-3.75-14-2-8.68-3.72-17.4-5.51-26.12-.88-4.3-1.64-8.62-2.45-12.94l-1.49,0c-1,5.87-2.09,11.74-3,17.63q-2.91,18.9-5.62,37.82a44.26,44.26,0,0,0,0,6.41,23.75,23.75,0,0,1,0,4.13c-2.11,12-4.09,24.06-6.54,36a157.5,157.5,0,0,1-5.19,18.14c-.64,1.9-2.43,3.41-3.79,5.23-1.08-.72-1.69-1.15-2.32-1.55-5.7-3.63-6.24-3.51-8.21,2.9-1.13,3.66-1.69,7.49-2.72,11.18-2.48,8.87-5.09,17.71-7.75,26.92l-2.33-2.49a5.89,5.89,0,0,1-.47,1.5c-1,1.42-2.48,4.13-3.2,4-2.94-.7-4.17.81-5.83,2.63-1,1-2.86,1.25-4.66,2,.44,4.46-4.07,4-6.44,6s-4,5.11-6.53,8.54c-.65-2.6-1.09-4.41-1.7-6.86l-3.59,4.26c.12-2.34-.27-4.34.32-4.68,6-3.46,5.36-9.84,6.26-15.09,1.82-10.58,2.62-21.34,3.73-32a14.48,14.48,0,0,0-.62-4c-.2-1-1-2.58-.6-3,3.08-3.45.69-7.61,1.74-11.22.66-2.28,2.47-4.24,3.11-6.53.8-2.91,2.22-6.7,1-8.85-2.09-3.87-1.54-7.32-.72-10.94,1.29-5.69,3.65-11.23,4.25-17,.86-8.19,3.27-16,5.12-23.87,2.33-10,5.35-19.8,7.64-29.79a8.93,8.93,0,0,0-1.78-6.58c-2-2.57-.9-3.92.77-5.64.91-.94,2-2,2.33-3.13,3.07-12.33,5.67-24.78,9-37,2.62-9.48,6.43-18.64,9.22-28.08,2.39-8.09,3.79-16.47,6.18-24.56,1.51-5.12,4-10,6.13-14.91.18-.4.56-1,.89-1,5.11-.61,9.12-5.5,15-3.5,2.8.95,6.15.37,8.87,1.44,7.16,2.83,11.62,8.18,13.7,15.73,1.8,6.5,4.17,12.83,6.35,19.21,3.53,10.36,3.93,21.43,7,31.83,3.26,11.09,3.81,22.47,5.58,33.72.26,1.66,1.12,3.88,2.4,4.6,5.12,2.86,4.54,7.19,3.88,11.79a42.76,42.76,0,0,0,0,5.69l2-.36,4.65,7.52c4.43-4.81,4.56-9.84,5.88-14.62-.38,2.46-.85,4.91-1.1,7.39-.21,2-2.18,4,.43,6.27.8.69.31,4.56-.83,5.52-4.28,3.62-.44,7.07-1.54,10.49l1.65.3c1.68-4.09,4-8.06,4.88-12.32,1.08-5.19.79-10.66,1.41-16,.28-2.47,1.63-4.81,1.94-7.27,1.57-12.39,5.12-24.29,8.75-36.16,2-6.53,4.41-12.94,6.51-19.44,1-2.94,1.6-6,2.44-9.15l2.38,3.4,2.38-5.39c-6.15-7.19.33-13.43.86-19.93a22.08,22.08,0,0,0,2.46.11c.72-4.5,4.66-7.15,6.06-11.69,2.57-8.35,7.68-15.92,12.35-23.62l-2.82,9.36-.28-.06-6.54,23.65.94.21L1252.87,331c-.25-1.85-.57-4.34-.94-7.1-2.43,0-3.55-1.35-2.57-4.4,3.57-11.09,7-22.23,10.53-33.34.18-.57.6-1.56.84-1.54,6.19.51,4.49-5.28,6.49-8.08,1-1.34,1.75-2.81,2.63-4.23l1.92.93q-3.13,6.78-6.26,13.57l1.38.89c4-6.89,8.62-13.14,15.51-18.31-.19,4.06-3.94,6.36-2.91,9.88l-3.48,8,1.24,1,6-4.86c-.09,1.3.11,2.45-.24,2.66-2.84,1.69-3.1,4.43-3.78,7.32-1,4.07-3.51,7.84-4,11.9-.32,2.67,1,6.73,3,8.19,3.23,2.34,4.48,4.47,3.5,8.18a11.88,11.88,0,0,0,.12,3.06l5.26-1.7c.15,3.44.63,6.49.32,9.46-.39,3.81-1.41,7.56-2.18,11.33a15.31,15.31,0,0,0,1.89,11.54c.88,1.49-.32,4.21-.54,6.15l-13.16.85c-4,3.19-5.14,9.15-5.81,15.49A31.11,31.11,0,0,1,1265,388.1c-1.84,3.74-3.46,7-3.3,11.55.21,5.77-1.83,11.6-2.55,17.44a12.62,12.62,0,0,0,.92,6.31C1260.68,424.77,1262.51,425.62,1264.53,427.33Zm-79.9,145.5-8.43-3.3c-3.26,4.7-.44,9.33.76,13.92.23.91,2.49,2,3.67,1.82,2.5-.3,4.91-1.36,7.61-2.18-.2-.71-.48-1.66-.75-2.6,4.17-2,5.94-4.37,5-9.4-.33-1.79-3.78-3-6.33-4.87C1185.51,569,1185.11,570.78,1184.63,572.83Zm-2.57-37.49c-.12,1.93-.17,3.28-.29,4.62-.25,2.66.22,7.15-.94,7.62-3.88,1.59-1.61,3.87-1.51,5.84a44,44,0,0,0,.84,7.24c.3,1.44,1.22,2.74,2.12,4.64C1187.05,555.53,1187.07,540.09,1182.06,535.34Zm68.07-187.12c-1.4,5.14-2.62,9.6-3.87,14.14,7.24.85,8,.05,8.75-7.43Zm12.74-28.48c-6.14-.93-7.82.95-7.9,8.51l5,.37C1261,325.62,1261.86,322.86,1262.87,319.74Zm-75.8,165.67,1.61.14c3.51-5,4.58-15.84,1.73-18.79C1189.27,473.09,1188.17,479.25,1187.07,485.41Zm-9.92-37.85c-3.34,6.57-.15,12.42,2,18.4C1181.67,459.54,1176.94,453.78,1177.15,447.56Zm93.35-114.48c-1.84,2.71-3.47,5-5,7.38-.79,1.26-1.37,2.66-2,4a13.63,13.63,0,0,0,3.51-.81C1271,341.45,1272.58,336.93,1270.5,333.08Zm-81.29,217.71-1.32.16c-.56,3.3-1.24,6.59-1.62,9.91-.1.85.73,1.82,1.13,2.73.9-.43,2.08-.66,2.62-1.36a4.24,4.24,0,0,0,.29-2.73c-.11-1.13-.6-2.22-.73-3.36C1189.37,554.37,1189.33,552.58,1189.21,550.79Zm37.85-168c1.86-4,4.89-8,0-13.46Zm-52.12,62.94,1.45-.32c1.08-6.05.86-6.8-3.44-8.91C1173.71,440.06,1174.33,442.9,1174.94,445.75Z" transform="translate(-369.75 -21.25)"/><path class="cls-7" d="M1145.7,597.17c-3.14,2.42-7.5,4.78-8.57,10.86-1,5.36-3.39,10.51-5.56,15.6-1.41,3.31-1.16,5.4,1.83,7.87a44.74,44.74,0,0,1,14.75,23,12.24,12.24,0,0,1-4.1,13.36,10,10,0,0,1-5.77,2.26c-10.58.23-21.18.39-31.75,0-3.38-.12-6.87-1.63-10-3.14-2.47-1.19-4.25-1.45-6.78,0-10.58,5.94-21.5,4.52-30.9-3.45-5.64-4.78-11.43-9.39-17.23-14-6.07-4.79-8.92-11.31-10.25-18.64-.55-3-1.76-4.51-5.18-4.31a15.23,15.23,0,0,1-7.18-1.33c-4.23-2-7.52-.69-11.24,1.44-9.89,5.64-20.74,8.61-32,10.05-2.35.3-4.86-.59-7.29-1-2.89-.48-5.79-1.52-8.65-1.43-10.1.3-17.75-3.89-24.13-11.48-2.19-2.6-6-3.76-8.37-6.28-5.86-6.34-11.27-13.08-16.87-19.65a105.08,105.08,0,0,0-6.94-8.06c-8.71-8.32-11.68-19-12.92-30.42-.9-8.27-1.26-16.59-1.9-24.89a22.48,22.48,0,0,0-.75-2.91c-2.2,5-4.57,8.52-3.68,13.7,1.43,8.39-2.57,16-5.26,23.65a10.13,10.13,0,0,0-.54,5.6c4.43,16.47-6.19,31.55-22.88,34.07-6.73,1-13.61,4.21-19.31,8-13,8.76-28.89,7.22-39.06-4.88-3.2-3.81-6.68-6-12-3.75A42.8,42.8,0,0,1,774,609.7c-3.89.47-6.24,2.45-8.53,5.49-6.53,8.67-15.32,12-26.1,10a24.69,24.69,0,0,0-6.43-.13c-8.88.75-16.25-2-22.59-8.42-4.63-4.67-10.37-8.26-14.82-13.07-9.29-10-13.84-21.77-10.35-35.68a38,38,0,0,0,.72-4.11,5.45,5.45,0,0,0-.12-1.32c-4-.53-8.15-.45-11.83-1.71a44.59,44.59,0,0,1-10.73-6,58.68,58.68,0,0,1-10.48-8.7c-5-5.6-10.05-11.33-13.7-17.78-2.72-4.8-3.72-10.77-4.59-16.36-.54-3.51-.37-7.73,1.14-10.84,3.8-7.84,8.63-15.19,12.87-22.84a64.91,64.91,0,0,0,4.31-9.59c4.71-13.23,14.14-22.88,24-32.21a17.19,17.19,0,0,0,2.89-2.82c4.94-7.79,9.47-15.84,14.71-23.4,4.9-7.06,12-13,15.47-20.56,4.52-9.84,13.52-15.5,19-24.23,1.6-2.55,4.38-4.33,6.43-6.64,2.84-3.21,5.52-6.56,8.22-9.9,1.63-2,3-4.32,4.78-6.17,6.33-6.47,13.09-12.55,19.1-19.29,3.42-3.85,5.13-9.23,8.62-13,6.74-7.27,13-15.59,23.26-18.26,4.06-1.06,8.49-.73,12.76-1,1.37-.08,2.81.32,4.11,0,6.09-1.4,11.69.38,17.11,2.68,6.48,2.75,12.74,6.05,19.22,8.81a5.12,5.12,0,0,0,4.39-.74c8.63-7.2,18.33-9.07,29.09-6.39a7.91,7.91,0,0,0,2.7.38c9.3-1.13,18.63-2,27.85-3.62,5-.86,9.65-3.26,14.58-4.46,16.76-4.1,33.55-8.12,50.87-9.18a23.56,23.56,0,0,0,5.72-1.54c2.78-.92,5.45-2.53,8.28-2.86,10.33-1.22,20.7-2.63,31.07-2.76,5.29-.07,10.78,2,15.86,3.92,2.51,1,4.11,1.39,6.15-.43,1.84-1.64,4-3,5.82-4.58C1063.53,263,1073.38,260,1085,260c11,0,19.33,3.26,26.38,11.53,3.13,3.66,8.24,5.65,11.24,9.38a181.5,181.5,0,0,1,14.57,21.32,11.55,11.55,0,0,0,9.12,6c7.07.91,12.6,4.3,17.69,9.21,7.64,7.37,16.1,13.91,23.55,21.45,3.89,3.95,6.38,9.29,9.59,14.13,2.84-3.38,5.06-7,5.09-12.1,0-10.65,5.2-18.65,14.78-23.28a15.06,15.06,0,0,0,8.27-9.85c3.39-11,6.43-22.21,10.35-33.06,1.66-4.62,4.75-8.93,8-12.72,3.45-4.08,7.28-8.42,11.89-10.83,10.28-5.39,20.55-11.51,32.77-11.39,7.86.08,14.21,3.54,19.36,9.45,1.57,1.8,3.77,3,5.44,4.76,3.9,4,9.07,7.61,11.15,12.47,3.22,7.51,4.3,15.94,6.27,24a47.37,47.37,0,0,0,1.16,4.91c3.49,9.61,1.64,18.29-4.78,26-1.72,2.05-1.78,3.65-1.35,6.18,1,6,1.27,12.13,1.78,18.2.11,1.21-.33,2.51,0,3.65,3.8,14.74-.75,27.71-7.22,40.85-6.09,12.39-10.73,25.54-15.34,38.59-1.32,3.72-.52,8.27-.35,12.42,1,24.44-4.52,47.85-11.61,70.92-2.79,9.08-7.14,17.67-10.6,26.55a66,66,0,0,0-2.43,8.92c-2.4,10.45-7.53,18.8-17.49,23.72-4.35,2.14-6.59,5.28-7.25,10.73-.7,5.74-3.74,11.33-6.4,16.66-3.22,6.46-7.13,12.59-10.73,18.87-9,15.79-37.41,30.56-56,14.24-6.32-5.54-13.84-9.76-19.9-15.53S1151.2,603.77,1145.7,597.17ZM676.55,521.78l1.21,1.8c3.45-3.94,7.28-4.18,11.9-2.73,2.17.68,5.05-.61,7.52-1.3s4.54-1.79,6.86-2.55c7.36-2.43,14.92-4.38,22.08-7.31,5.91-2.42,11.34-6,17-9a15.24,15.24,0,0,1,3.68-.89,17.89,17.89,0,0,1-.9,4.06c-1.4,2.91-4,5.55-4.45,8.56-1.28,8.22-5.15,14.39-10.59,20.76-9.39,11-16.78,23.52-19.79,38.16-1.41,6.88-.89,9.31,4.74,13.51.4.3.4,1.12.6,1.74l14.25-1.73v2.59c7.35-4.43,6.24-15.51,15.17-19.26.85,1.41,1.26,3,2.15,3.36,1.5.6,3.66,1.07,4.89.4s2.26-2.74,2.47-4.32c.48-3.68.41-7.44.57-11.16l1.83,0c.72,1.92,1.43,3.83,2.3,6.17,5.28-3.17,6.55-8.46,7.33-13.45,1.05-6.75.38-13.75,2.91-20.33,3.47-9,6.56-18.11,10.39-26.92,3.49-8,7.58-15.84,11.76-23.56,1.86-3.44,5.24-3.55,7.85-.7,2.25,2.46,4.19,2.5,7,.57,2.09-1.44,4.93-1.77,8-2.78-3.85,12-7.38,22.92-10.91,33.88l1.44.49,2.91-7.36c1.31,1.85,2.31,4,1.76,5.52-1.25,3.58-3.5,6.81-4.9,10.35-2.29,5.78-4.75,11.57-6.15,17.58-1,4.44-2.28,8.82-.49,14,1.67,4.86.35,10.74.35,16.14-4.11,1-4.6,1.93-3.5,6.8a23.27,23.27,0,0,1,5.48,5.31c1,1.33,1.42,3.08,2.35,4.47a2.83,2.83,0,0,0,2.18,1.25c.63-.08,1.26-1.12,1.65-1.86,1.12-2.12,2.12-4.3,3.53-7.22-2.66-4.35-3-7.39-.63-9.64l1.69,7.67,1.33-1.25,8.76,3.74c.61-1.94,1.42-4.46,2.22-7l1,1.21c1.42-.51,3.6-.62,4.12-1.6,2.2-4.17,3.9-8.61,5.8-12.94s3.64-8.72,5.79-12.91c.81-1.58,2.57-2.67,3.9-4l-.91-.86-3.88,3.45c.5-3.48.5-5.78,1.19-7.85q5.16-15.52,10.65-31c2-5.65,3.2-11.17.42-17-1.46-3.07,2.43-10,5.62-11.11,3.87-1.33,7.66-2.94,12-4.62l-7-1,9.06-4.17c2.94-.68,4.87-.75,6.37-1.58,1.88-1,3.24-3,5.13-4,5.22-2.78,10.6-5.25,15.92-7.83.41-.2,1-.58,1.26-.44,4.46,2.34,8.48-.54,12.69-.79,3.77-.23,7.81-4.32,12.3.54-3.55,1.26-7.27,4-9.57,3.13-7.54-2.91-12.46,1.55-18,4.6l19.61-2.71c.13,2.29.21,3.57.28,4.84l.9,0V456l4.53-.62c0,4.66.46,8.94-.1,13.08-1.12,8.2-2.87,16.3-4.22,24.48-.38,2.3.51,5.07-.48,7-5.6,10.76-4.4,22.11-3.45,33.46.62,7.48,1.66,14.94,2,22.43.25,5.8.69,11.16,5.92,14.94a22.72,22.72,0,0,1,4.34,4.62c3.93,5.12,7.59,10.46,11.72,15.42a13,13,0,0,0,6,3.89c3,.88,6.91-.16,9.17,1.42,4.29,3,7.69,2.59,12.64,1.61,6.88-1.36,12.79-4.18,18.86-7.12,2.34-1.13,4.6-2.72,7.08-3.24a60.19,60.19,0,0,0,27.85-14c7.4-6.49,15.76-12,20.66-21a46.55,46.55,0,0,1,6-8.15c3.5-4,6.41-8.16,6.83-13.76.1-1.29,1.79-2.53,2.89-3.66.65-.67,1.94-.86,2.34-1.6,2.92-5.4,6.41-10.64,8.3-16.4,2.26-6.84,5.16-13.7,4.64-21.27-.11-1.7,1-3.46,1.34-5.23a17.69,17.69,0,0,0-.05-3.56c-3.58.44-1.82-2.2-1.65-3.32,1.36-8.77,3-17.5,4.37-26.27.8-5.07,1.83-10.23-1.06-15.07-2.19,2.64-4.22,5.08-6.24,7.53l-1.92-1c5.9-12.58,10.06-25.94,18.87-38.41.52,2.27.79,3.48,1.25,5.52,1.67-5.32,3.34-9.85,4.46-14.52.65-2.7,1.24-4.55,4.31-5.63,1.92-.68,3.71-3.16,4.55-5.23,2.41-6,4.34-12.14,6.4-18.25.47-1.39.69-2.87,1-4.38-4.63-.31-5.86-2.1-5.5-7a11.4,11.4,0,0,0-.56-3.12c1-4.7,2.12-9.3,3.09-13.93a29.66,29.66,0,0,0-2.9-20.5,11.27,11.27,0,0,1-.71-4c-.55-4.61.29-9.83-5.45-12.07-1.39-.54-2.85-.93-4.65-1.5-.15-2.83,0-5.79-.62-8.58-.27-1.2-2.25-2.9-3.38-2.84-3,.17-5.87-.84-9.34,1-3,1.57-5,2.38-5.69,5.8-.32,1.47-1.86,3.76-2.93,3.81-8.22.4-8.6,7.38-10.22,12.55-2.35,7.51-1.88,15.47-7.48,22.47-5.41,6.75-6.85,15.86-8.65,24.54-1.57,7.62-4.94,14.85-7.18,22.36-2,6.58-3.52,13.29-5.19,20-2.3,9.23-4.8,18.41-6.72,27.71-2,9.81-7.66,18.74-7.14,29.16,0,.25-.49.54-.46.76.63,4.4,0,9.73,2.36,12.89,1.91,2.58,2.85,4.53,2.15,7.12-2.27,8.48-4.41,17-7.4,25.26-3.15,8.67-7.62,16.85-10.77,25.52-3.38,9.28-11,14.69-17.52,22.69-4.38-10.69-16.19-12.59-21.06-21.6l4.22-3c-2.37-4.18-2.37-4.18,0-7.72a4,4,0,0,0,.84-1.45c.5-4.8.45-9.7,1.47-14.38,2.41-11,5.18-21.86,8.06-32.71,3.31-12.49,6.85-24.92,10.4-37.34,2.39-8.37-1.87-17,1.71-25.52,2-4.66,1.48-10.3,2.37-15.45,1.19-6.94.78-13.19-5.88-17.45-.69-.44-1.61-1.55-1.46-2.1.94-3.47-.34-5.94-2-9.13-3.29-6.44-2.19-14.76-9.33-20.35,10.75-7.15,22.94-6,34.21-11.11-.75,2-1.07,2.79-1.76,4.62l26.22-7.45-4.86-4.53c-.52-7.71,6.09-3.85,9.39-5.8l-7.37-2.45,5.75-7.12-2.12-.79.52-1,4.65-1.48.18-1.23c-2.47-.88-4.94-2.52-7.4-2.49a144,144,0,0,0-16.67,1.54c-5.8.75-11.53,2.11-17.34,2.63C986.66,306,975,306,963.65,307.66c-14.18,2-28.2,5.14-41.5,10.86-4.56,2-9.17,4.17-14,5.06-6.15,1.14-12.65.45-18.78,1.65-8.28,1.63-17.35,1-24.34,7.22-.59.52-1.78.4-2.69.54-2.34.36-4.79.38-7,1.13-4.39,1.48-8.64,3.35-13.62,5.33.52-1.82.8-2.69,1-3.56.68-2.71,3.32-6,.18-8-3.88-2.56-7.42-6.89-13.45-4-2.55,1.21-6,.47-9,.61.37-2.1.76-4.34,1.23-7.06-5.29.75-9.17,3-14.06,2.92-3.42-.05-8.56,2.41-11.6,6.94-1.57,2.34-.61,4.8-2.35,6.67-5.82,6.26-11.4,12.74-17.31,18.9-3.12,3.25-7,5.76-10,9.07-2.75,3-4.58,6.87-7.2,10-5.51,6.62-11.35,13-16.91,19.54-5,5.88-9.75,11.89-14.55,17.89-1.82,2.3-3.46,4.74-5.18,7.12l1.23,1a24,24,0,0,1,3.21-3,14.35,14.35,0,0,1,3.47-1.19l.22,1.09-16.52,23.48c-3.67.78-6.67.59-8.17,2-1.06,1-.08,4.15,0,6.35l1.54.28a32,32,0,0,0-3.79,4.58c-1.5,2.64-7.09,3.66-3.59,8.5.16.23-.82,1.59-1.52,2.07-2.69,1.9-5.48,3.65-8.26,5.47-5.43-4.8,5-5.18,2.65-9.15-5.91,2.34-17.21,19.93-17.32,27.43l6.47-4.21.09,1.22,9.06-1.57c-.39,1.37-.37,2.19-.74,2.44-5,3.3-10,6.52-15,9.75-.12.08-.3.07-.44.13l-7.63,3,.89.68-7,13.05,13.4,2.86c1.32,1.79,3.12,4.23,5.76,7.78Zm588-94.45c-2-1.71-3.85-2.56-4.45-3.93a12.62,12.62,0,0,1-.92-6.31c.72-5.84,2.76-11.67,2.55-17.44-.16-4.59,1.46-7.81,3.3-11.55a31.11,31.11,0,0,0,2.64-10.29c.67-6.34,1.8-12.3,5.81-15.49l13.16-.85c.22-1.94,1.42-4.66.54-6.15a15.31,15.31,0,0,1-1.89-11.54c.77-3.77,1.79-7.52,2.18-11.33.31-3-.17-6-.32-9.46l-5.26,1.7a11.88,11.88,0,0,1-.12-3.06c1-3.71-.27-5.84-3.5-8.18-2-1.46-3.35-5.52-3-8.19.48-4.06,3-7.83,4-11.9.68-2.89.94-5.63,3.78-7.32.35-.21.15-1.36.24-2.66l-6,4.86-1.24-1,3.48-8c-1-3.52,2.72-5.82,2.91-9.88-6.89,5.17-11.54,11.42-15.51,18.31l-1.38-.89q3.13-6.8,6.26-13.57l-1.92-.93c-.88,1.42-1.67,2.89-2.63,4.23-2,2.8-.3,8.59-6.49,8.08-.24,0-.66,1-.84,1.54-3.51,11.11-7,22.25-10.53,33.34-1,3.05.14,4.36,2.57,4.4.37,2.76.69,5.25.94,7.1L1238.72,358l-.94-.21,6.54-23.65.28.06,2.82-9.36c-4.67,7.7-9.78,15.27-12.35,23.62-1.4,4.54-5.34,7.19-6.06,11.69a22.08,22.08,0,0,1-2.46-.11c-.53,6.5-7,12.74-.86,19.93l-2.38,5.39-2.38-3.4c-.84,3.18-1.49,6.21-2.44,9.15-2.1,6.5-4.5,12.91-6.51,19.44-3.63,11.87-7.18,23.77-8.75,36.16-.31,2.46-1.66,4.8-1.94,7.27-.62,5.31-.33,10.78-1.41,16-.88,4.26-3.2,8.23-4.88,12.32l-1.65-.3c1.1-3.42-2.74-6.87,1.54-10.49,1.14-1,1.63-4.83.83-5.52-2.61-2.26-.64-4.23-.43-6.27.25-2.48.72-4.93,1.1-7.39-1.32,4.78-1.45,9.81-5.88,14.62l-4.65-7.52-2,.36a42.76,42.76,0,0,1,0-5.69c.66-4.6,1.24-8.93-3.88-11.79-1.28-.72-2.14-2.94-2.4-4.6-1.77-11.25-2.32-22.63-5.58-33.72-3.06-10.4-3.46-21.47-7-31.83-2.18-6.38-4.55-12.71-6.35-19.21-2.08-7.55-6.54-12.9-13.7-15.73-2.72-1.07-6.07-.49-8.87-1.44-5.86-2-9.87,2.89-15,3.5-.33,0-.71.61-.89,1-2.1,4.95-4.62,9.79-6.13,14.91-2.39,8.09-3.79,16.47-6.18,24.56-2.79,9.44-6.6,18.6-9.22,28.08-3.38,12.24-6,24.69-9,37-.29,1.17-1.42,2.19-2.33,3.13-1.67,1.72-2.78,3.07-.77,5.64a8.93,8.93,0,0,1,1.78,6.58c-2.29,10-5.31,19.81-7.64,29.79-1.85,7.91-4.26,15.68-5.12,23.87-.6,5.74-3,11.28-4.25,17-.82,3.62-1.37,7.07.72,10.94,1.17,2.15-.25,5.94-1,8.85-.64,2.29-2.45,4.25-3.11,6.53-1,3.61,1.34,7.77-1.74,11.22-.42.46.4,2,.6,3a14.48,14.48,0,0,1,.62,4c-1.11,10.7-1.91,21.46-3.73,32-.9,5.25-.28,11.63-6.26,15.09-.59.34-.2,2.34-.32,4.68l3.59-4.26c.61,2.45,1,4.26,1.7,6.86,2.54-3.43,4.1-6.5,6.53-8.54s6.88-1.53,6.44-6c1.8-.71,3.7-.91,4.66-2,1.66-1.82,2.89-3.33,5.83-2.63.72.18,2.15-2.53,3.2-4a5.89,5.89,0,0,0,.47-1.5l2.33,2.49c2.66-9.21,5.27-18,7.75-26.92,1-3.69,1.59-7.52,2.72-11.18,2-6.41,2.51-6.53,8.21-2.9.63.4,1.24.83,2.32,1.55,1.36-1.82,3.15-3.33,3.79-5.23a157.5,157.5,0,0,0,5.19-18.14c2.45-12,4.43-24,6.54-36a23.75,23.75,0,0,0,0-4.13,44.26,44.26,0,0,1,0-6.41q2.7-18.93,5.62-37.82c.9-5.89,2-11.76,3-17.63l1.49,0c.81,4.32,1.57,8.64,2.45,12.94,1.79,8.72,3.54,17.44,5.51,26.12,1.07,4.71,2.82,9.28,3.75,14,1.36,6.95,2.07,14,3.42,21,1,4.92,2.81,9.66,3.73,14.59,1.3,7,2,14,3.16,21,.72,4.22,1.89,8.36,2.85,12.53l1-.16V553a24.85,24.85,0,0,1,1.37,2.71c3.22,10.86,4.94,22.27,11.56,31.92.28.42-.42,1.51-.85,2.86-2.4-4-4.35-7.32-6.3-10.6l-1.3.74c2,4.05,3.36,8.73,6.26,12,3.12,3.53,7.63,5.86,11.73,8.41.78.49,2.79-.09,3.61-.85a3.4,3.4,0,0,0,.16-3.32c-1.06-1.43-2.72-2.41-4.42-3.81a14.25,14.25,0,0,1,1-1.81c2.77,1.16,5.48,2.46,8.18,3.74,1.48-3.58,2.94-7.09,4.48-10.8l3.53,2.28-1.62-.55c5.88-2.73,3.52-7.23,3.69-11.66,1.53,1.73,2.56,2.88,3.43,3.85.69-1.37,1.12-2.45,1.74-3.41,1.6-2.48,4-4.7,4.77-7.4,1.78-6.15-2.2-13.57,4.15-18.83.33-.28-.1-1.43-.12-2.18,0-1.48,0-3,0-4.44l.57-.07,1.39,3.73c3.55-2.37,6.53-5.19,10.06-6.53,5.34-2,9.5-4.35,9.75-10.81a19.82,19.82,0,0,1,1.52-6.63c3.82-9.37,8.64-18.41,11.59-28C1261,471.53,1266.2,449.17,1264.53,427.33Z" transform="translate(-369.75 -21.25)"/><path class="cls-3" d="M676.55,521.78l4-1.27c-2.64-3.55-4.44-6-5.76-7.78l-13.4-2.86,7-13.05-.89-.68,7.63-3c.14-.06.32-.05.44-.13,5-3.23,10-6.45,15-9.75.37-.25.35-1.07.74-2.44l-9.06,1.57-.09-1.22-6.47,4.21c.11-7.5,11.41-25.09,17.32-27.43,2.36,4-8.08,4.35-2.65,9.15,2.78-1.82,5.57-3.57,8.26-5.47.7-.48,1.68-1.84,1.52-2.07-3.5-4.84,2.09-5.86,3.59-8.5a32,32,0,0,1,3.79-4.58l-1.54-.28c-.08-2.2-1.06-5.36,0-6.35,1.5-1.42,4.5-1.23,8.17-2l16.52-23.48-.22-1.09A14.35,14.35,0,0,0,727,414.5a24,24,0,0,0-3.21,3l-1.23-1c1.72-2.38,3.36-4.82,5.18-7.12,4.8-6,9.59-12,14.55-17.89,5.56-6.58,11.4-12.92,16.91-19.54,2.62-3.15,4.45-7,7.2-10,3-3.31,6.9-5.82,10-9.07,5.91-6.16,11.49-12.64,17.31-18.9,1.74-1.87.78-4.33,2.35-6.67,3-4.53,8.18-7,11.6-6.94,4.89.06,8.77-2.17,14.06-2.92-.47,2.72-.86,5-1.23,7.06,3-.14,6.46.6,9-.61,6-2.89,9.57,1.44,13.45,4,3.14,2.07.5,5.32-.18,8-.22.87-.5,1.74-1,3.56,5-2,9.23-3.85,13.62-5.33,2.21-.75,4.66-.77,7-1.13.91-.14,2.1,0,2.69-.54,7-6.21,16.06-5.59,24.34-7.22,6.13-1.2,12.63-.51,18.78-1.65,4.81-.89,9.42-3.1,14-5.06,13.3-5.72,27.32-8.83,41.5-10.86,11.39-1.62,23-1.62,34.5-2.67,5.81-.52,11.54-1.88,17.34-2.63a144,144,0,0,1,16.67-1.54c2.46,0,4.93,1.61,7.4,2.49l-.18,1.23-4.65,1.48-.52,1,2.12.79-5.75,7.12,7.37,2.45c-3.3,1.95-9.91-1.91-9.39,5.8l4.86,4.53-26.22,7.45c.69-1.83,1-2.65,1.76-4.62-11.27,5.12-23.46,4-34.21,11.11,7.14,5.59,6,13.91,9.33,20.35,1.63,3.19,2.91,5.66,2,9.13-.15.55.77,1.66,1.46,2.1,6.66,4.26,7.07,10.51,5.88,17.45-.89,5.15-.41,10.79-2.37,15.45-3.58,8.51.68,17.15-1.71,25.52-3.55,12.42-7.09,24.85-10.4,37.34-2.88,10.85-5.65,21.74-8.06,32.71-1,4.68-1,9.58-1.47,14.38a4,4,0,0,1-.84,1.45c-2.38,3.54-2.38,3.54,0,7.72l-4.22,3c4.87,9,16.68,10.91,21.06,21.6,6.47-8,14.14-13.41,17.52-22.69,3.15-8.67,7.62-16.85,10.77-25.52,3-8.23,5.13-16.78,7.4-25.26.7-2.59-.24-4.54-2.15-7.12-2.33-3.16-1.73-8.49-2.36-12.89,0-.22.48-.51.46-.76-.52-10.42,5.11-19.35,7.14-29.16,1.92-9.3,4.42-18.48,6.72-27.71,1.67-6.67,3.22-13.38,5.19-20,2.24-7.51,5.61-14.74,7.18-22.36,1.8-8.68,3.24-17.79,8.65-24.54,5.6-7,5.13-15,7.48-22.47,1.62-5.17,2-12.15,10.22-12.55,1.07-.05,2.61-2.34,2.93-3.81.73-3.42,2.69-4.23,5.69-5.8,3.47-1.83,6.3-.82,9.34-1,1.13-.06,3.11,1.64,3.38,2.84.64,2.79.47,5.75.62,8.58,1.8.57,3.26,1,4.65,1.5,5.74,2.24,4.9,7.46,5.45,12.07a11.27,11.27,0,0,0,.71,4,29.66,29.66,0,0,1,2.9,20.5c-1,4.63-2,9.23-3.09,13.93a11.4,11.4,0,0,1,.56,3.12c-.36,4.87.87,6.66,5.5,7-.35,1.51-.57,3-1,4.38-2.06,6.11-4,12.28-6.4,18.25-.84,2.07-2.63,4.55-4.55,5.23-3.07,1.08-3.66,2.93-4.31,5.63-1.12,4.67-2.79,9.2-4.46,14.52-.46-2-.73-3.25-1.25-5.52-8.81,12.47-13,25.83-18.87,38.41l1.92,1c2-2.45,4-4.89,6.24-7.53,2.89,4.84,1.86,10,1.06,15.07-1.39,8.77-3,17.5-4.37,26.27-.17,1.12-1.93,3.76,1.65,3.32a17.69,17.69,0,0,1,.05,3.56c-.32,1.77-1.45,3.53-1.34,5.23.52,7.57-2.38,14.43-4.64,21.27-1.89,5.76-5.38,11-8.3,16.4-.4.74-1.69.93-2.34,1.6-1.1,1.13-2.79,2.37-2.89,3.66-.42,5.6-3.33,9.74-6.83,13.76a46.55,46.55,0,0,0-6,8.15c-4.9,9-13.26,14.49-20.66,21a60.19,60.19,0,0,1-27.85,14c-2.48.52-4.74,2.11-7.08,3.24-6.07,2.94-12,5.76-18.86,7.12-5,1-8.35,1.38-12.64-1.61-2.26-1.58-6.2-.54-9.17-1.42a13,13,0,0,1-6-3.89c-4.13-5-7.79-10.3-11.72-15.42a22.72,22.72,0,0,0-4.34-4.62c-5.23-3.78-5.67-9.14-5.92-14.94-.32-7.49-1.36-14.95-2-22.43-.95-11.35-2.15-22.7,3.45-33.46,1-1.89.1-4.66.48-7,1.35-8.18,3.1-16.28,4.22-24.48.56-4.14.1-8.42.1-13.08L919,456v3.69l-.9,0c-.07-1.27-.15-2.55-.28-4.84l-19.61,2.71c5.59-3,10.51-7.51,18-4.6,2.3.89,6-1.87,9.57-3.13-4.49-4.86-8.53-.77-12.3-.54-4.21.25-8.23,3.13-12.69.79-.27-.14-.85.24-1.26.44-5.32,2.58-10.7,5.05-15.92,7.83-1.89,1-3.25,3-5.13,4-1.5.83-3.43.9-6.37,1.58l-9.06,4.17,7,1c-4.29,1.68-8.08,3.29-12,4.62-3.19,1.1-7.08,8-5.62,11.11,2.78,5.82,1.58,11.34-.42,17q-5.46,15.45-10.65,31c-.69,2.07-.69,4.37-1.19,7.85l3.88-3.45.91.86c-1.33,1.31-3.09,2.4-3.9,4-2.15,4.19-3.9,8.59-5.79,12.91s-3.6,8.77-5.8,12.94c-.52,1-2.7,1.09-4.12,1.6l-1-1.21c-.8,2.51-1.61,5-2.22,7l-8.76-3.74-1.33,1.25-1.69-7.67c-2.39,2.25-2,5.29.63,9.64-1.41,2.92-2.41,5.1-3.53,7.22-.39.74-1,1.78-1.65,1.86a2.83,2.83,0,0,1-2.18-1.25c-.93-1.39-1.36-3.14-2.35-4.47a23.27,23.27,0,0,0-5.48-5.31c-1.1-4.87-.61-5.77,3.5-6.8,0-5.4,1.32-11.28-.35-16.14-1.79-5.18-.55-9.56.49-14,1.4-6,3.86-11.8,6.15-17.58,1.4-3.54,3.65-6.77,4.9-10.35.55-1.56-.45-3.67-1.76-5.52l-2.91,7.36-1.44-.49c3.53-11,7.06-21.91,10.91-33.88-3.08,1-5.92,1.34-8,2.78-2.81,1.93-4.75,1.89-7-.57-2.61-2.85-6-2.74-7.85.7-4.18,7.72-8.27,15.52-11.76,23.56-3.83,8.81-6.92,17.95-10.39,26.92-2.53,6.58-1.86,13.58-2.91,20.33-.78,5-2,10.28-7.33,13.45-.87-2.34-1.58-4.25-2.3-6.17l-1.83,0c-.16,3.72-.09,7.48-.57,11.16-.21,1.58-1.21,3.63-2.47,4.32s-3.39.2-4.89-.4c-.89-.37-1.3-2-2.15-3.36-8.93,3.75-7.82,14.83-15.17,19.26v-2.59l-14.25,1.73c-.2-.62-.2-1.44-.6-1.74-5.63-4.2-6.15-6.63-4.74-13.51,3-14.64,10.4-27.16,19.79-38.16,5.44-6.37,9.31-12.54,10.59-20.76.47-3,3-5.65,4.45-8.56a17.89,17.89,0,0,0,.9-4.06,15.24,15.24,0,0,0-3.68.89c-5.7,3-11.13,6.55-17,9C719,512.62,711.4,514.57,704,517c-2.32.76-4.52,1.89-6.86,2.55s-5.35,2-7.52,1.3c-4.62-1.45-8.45-1.21-11.9,2.73ZM947.52,349c-.21-.47-.42-.95-.62-1.42a101.21,101.21,0,0,0-9.22,4.21c-3.61,2.09-6.69,5.37-10.5,6.79-4.78,1.78-10.19,1.83-15.1,3.35-3.42,1.06-7.74,2.55-9.4,5.25-2.88,4.69-3.69,10.59-6,15.73-4.36,9.84-9.08,19.52-13.77,29.22-1,2-2.53,3.82-3.68,5.79a112.66,112.66,0,0,0-5.73,10.58c-.29.66,1.61,3.32,2.3,3.24,6.53-.71,13.06-1.56,19.5-2.86,7.44-1.51,14.73-2.41,22.82,1.1l-5.24,1.74c1.82.86,3.14,2,4.48,2,3.51.08,7.67.77,10.37-.82s3.69-5.55.69-8.84a3.49,3.49,0,0,1-.5-2.52,46.94,46.94,0,0,1,1.38-7.48c2.08-6.71,4.19-13.41,6.64-20,2.78-7.46,5.95-14.78,8.88-22.19.15-.38-.27-1-.42-1.48l-1.25-.27q-2.67,7.09-5.33,14.2a104.05,104.05,0,0,1,3.26-20.16C942.61,359,945.34,354.08,947.52,349ZM747.86,431l-3.12-3.73-1.27.75c.58.91,1,2.12,1.79,2.66,2.29,1.53,2.17,2.81.46,4.82a90.67,90.67,0,0,0-9,11.72c-3.17,5.25-7.79,9.38-10.36,15.16-2.06,4.64-5.66,8.6-8.58,12.86l1,1.1,19-5c-.16,1.14-.25,1.81-.35,2.59,11.37-2.93,21.51-7.37,29.67-15.75,2.41-2.47,6.63-13.27,6.06-16.54a9.27,9.27,0,0,1,.87-5c.77-1.72,2.61-3,3.25-4.73,1.76-4.76,3.16-9.66,4.64-14.52.21-.68,0-1.5.21-2.17a33,33,0,0,1,1.7-4.33c.73-1.48,2-2.77,2.4-4.31,1.05-3.8,1.44-7.78,2.66-11.5,1.65-5,3-10.28,6.59-14.51a2,2,0,0,0,.52-1.26c-.13-1.48,0-4-.68-4.21a10.25,10.25,0,0,0-4.89.2c0,3.5-3.8,4-5,6.39-2,4.1-7.55,5.62-7.76,11,0,.5-1.41,1.13-2.26,1.39-1.65.49-3.36.77-5,1.13l1.3.82c-1.35,3-2.55,8.42-4.07,8.51-4.81.29-3.1,3-3.19,5.24l-5.35,1.07c-.34,2.87,2.17,7-3.41,6.87-.08,0-.09.8-.29,1.13C753.08,422.68,750.66,426.54,747.86,431Zm73.91,2.28.67-.33c2,1,4.78,3.27,5.84,2.64,2.66-1.55,5.89-3.6,5.93-7.36.11-10.37,7.14-19,6.76-29.67-.14-4.2,2.53-8.5,4.25-13.78-6.31,2.25-11.45,4.09-16.6,5.91-4,1.4-6.39,3.94-6.86,8.31-.15,1.31-1.12,2.52-1.6,3.81-2.41,6.41-5,12.76-7.11,19.27s-3.58,12.92-5.64,20.49l17.25-6.2.36-1.51Zm-3.33,71.9,1.43.91c6-5.19,9-12,10.15-19.72l-1.56-.82ZM825,391.07l17.68-9.52C825.39,383.31,825.39,383.31,825,391.07ZM743.81,565.53l1.48,1.62c2.14-1.76,4.39-3.42,6.35-5.36.52-.52.25-1.93.14-2.9,0-.19-1.34-.55-1.54-.34C748,560.82,745.93,563.19,743.81,565.53ZM809.7,455.7c-7.18-.6-8.34.61-6.77,6.79ZM812,548.46c4.73-4.75,4.81-7.11.51-10.35C812.35,541.59,812.2,544.52,812,548.46Zm1-21.54c4.54-1.89,5.71-5.58,3.25-8.82C815.13,521.29,814.1,524.1,813.06,526.92Zm109-81.07,4-4-6.88-3.13C920.27,441.39,921,443.09,922.06,445.85Z" transform="translate(-369.75 -21.25)"/><path class="cls-7" d="M947.52,349c-2.18,5.05-4.91,9.93-6.4,15.17a104.05,104.05,0,0,0-3.26,20.16q2.67-7.1,5.33-14.2l1.25.27c.15.5.57,1.1.42,1.48-2.93,7.41-6.1,14.73-8.88,22.19-2.45,6.58-4.56,13.28-6.64,20a46.94,46.94,0,0,0-1.38,7.48,3.49,3.49,0,0,0,.5,2.52c3,3.29,1.89,7.32-.69,8.84s-6.86.9-10.37.82c-1.34,0-2.66-1.14-4.48-2l5.24-1.74c-8.09-3.51-15.38-2.61-22.82-1.1-6.44,1.3-13,2.15-19.5,2.86-.69.08-2.59-2.58-2.3-3.24A112.66,112.66,0,0,1,879.27,418c1.15-2,2.69-3.74,3.68-5.79,4.69-9.7,9.41-19.38,13.77-29.22,2.27-5.14,3.08-11,6-15.73,1.66-2.7,6-4.19,9.4-5.25,4.91-1.52,10.32-1.57,15.1-3.35,3.81-1.42,6.89-4.7,10.5-6.79a101.21,101.21,0,0,1,9.22-4.21C947.1,348.08,947.31,348.56,947.52,349Z" transform="translate(-369.75 -21.25)"/><path class="cls-7" d="M747.86,431c2.8-4.48,5.22-8.34,7.61-12.22.2-.33.21-1.13.29-1.13,5.58.16,3.07-4,3.41-6.87l5.35-1.07c.09-2.2-1.62-5,3.19-5.24,1.52-.09,2.72-5.52,4.07-8.51l-1.3-.82c1.69-.36,3.4-.64,5-1.13.85-.26,2.24-.89,2.26-1.39.21-5.39,5.79-6.91,7.76-11,1.15-2.39,4.9-2.89,5-6.39a10.25,10.25,0,0,1,4.89-.2c.65.23.55,2.73.68,4.21a2,2,0,0,1-.52,1.26C792,384.74,790.61,390,789,395c-1.22,3.72-1.61,7.7-2.66,11.5-.42,1.54-1.67,2.83-2.4,4.31a33,33,0,0,0-1.7,4.33c-.22.67,0,1.49-.21,2.17-1.48,4.86-2.88,9.76-4.64,14.52-.64,1.74-2.48,3-3.25,4.73a9.27,9.27,0,0,0-.87,5c.57,3.27-3.65,14.07-6.06,16.54-8.16,8.38-18.3,12.82-29.67,15.75.1-.78.19-1.45.35-2.59l-19,5-1-1.1c2.92-4.26,6.52-8.22,8.58-12.86,2.57-5.78,7.19-9.91,10.36-15.16a90.67,90.67,0,0,1,9-11.72c1.71-2,1.83-3.29-.46-4.82-.83-.54-1.21-1.75-1.79-2.66l1.27-.75Z" transform="translate(-369.75 -21.25)"/><path class="cls-7" d="M821.77,433.3l3.25,1.58-.36,1.51-17.25,6.2c2.06-7.57,3.58-14.12,5.64-20.49s4.7-12.86,7.11-19.27c.48-1.29,1.45-2.5,1.6-3.81.47-4.37,2.91-6.91,6.86-8.31,5.15-1.82,10.29-3.66,16.6-5.91-1.72,5.28-4.39,9.58-4.25,13.78.38,10.63-6.65,19.3-6.76,29.67,0,3.76-3.27,5.81-5.93,7.36-1.06.63-3.84-1.67-5.84-2.64Z" transform="translate(-369.75 -21.25)"/><path class="cls-7" d="M818.44,505.2l10-19.63,1.56.82c-1.17,7.74-4.14,14.53-10.15,19.72Z" transform="translate(-369.75 -21.25)"/><path d="M825,391.07c.41-7.76.41-7.76,17.68-9.52Z" transform="translate(-369.75 -21.25)"/><path class="cls-7" d="M743.81,565.53c2.12-2.34,4.22-4.71,6.43-7,.2-.21,1.51.15,1.54.34.11,1,.38,2.38-.14,2.9-2,1.94-4.21,3.6-6.35,5.36Z" transform="translate(-369.75 -21.25)"/><path class="cls-7" d="M809.7,455.7l-6.77,6.79C801.36,456.31,802.52,455.1,809.7,455.7Z" transform="translate(-369.75 -21.25)"/><path class="cls-7" d="M812,548.46c.19-3.94.34-6.87.51-10.35C816.82,541.35,816.74,543.71,812,548.46Z" transform="translate(-369.75 -21.25)"/><path class="cls-7" d="M813.06,526.92c1-2.82,2.07-5.63,3.25-8.82C818.77,521.34,817.6,525,813.06,526.92Z" transform="translate(-369.75 -21.25)"/><path d="M922.06,445.85c-1.11-2.76-1.79-4.46-2.84-7.09l6.88,3.13Z" transform="translate(-369.75 -21.25)"/><path class="cls-7" d="M1184.63,572.83c.48-2.05.88-3.79,1.54-6.61,2.55,1.86,6,3.08,6.33,4.87.93,5-.84,7.41-5,9.4.27.94.55,1.89.75,2.6-2.7.82-5.11,1.88-7.61,2.18-1.18.15-3.44-.91-3.67-1.82-1.2-4.59-4-9.22-.76-13.92Z" transform="translate(-369.75 -21.25)"/><path class="cls-7" d="M1182.06,535.34c5,4.75,5,20.19.22,30-.9-1.9-1.82-3.2-2.12-4.64a44,44,0,0,1-.84-7.24c-.1-2-2.37-4.25,1.51-5.84,1.16-.47.69-5,.94-7.62C1181.89,538.62,1181.94,537.27,1182.06,535.34Z" transform="translate(-369.75 -21.25)"/><path class="cls-7" d="M1250.13,348.22l4.88,6.71c-.7,7.48-1.51,8.28-8.75,7.43C1247.51,357.82,1248.73,353.36,1250.13,348.22Z" transform="translate(-369.75 -21.25)"/><path class="cls-7" d="M1262.87,319.74c-1,3.12-1.91,5.88-2.89,8.88l-5-.37C1255.05,320.69,1256.73,318.81,1262.87,319.74Z" transform="translate(-369.75 -21.25)"/><path class="cls-7" d="M1187.07,485.41c1.1-6.16,2.2-12.32,3.34-18.65,2.85,2.95,1.78,13.76-1.73,18.79Z" transform="translate(-369.75 -21.25)"/><path class="cls-7" d="M1177.15,447.56c-.21,6.22,4.52,12,2,18.4C1177,460,1173.81,454.13,1177.15,447.56Z" transform="translate(-369.75 -21.25)"/><path class="cls-7" d="M1270.5,333.08c2.08,3.85.51,8.37-3.52,10.57a13.63,13.63,0,0,1-3.51.81c.68-1.34,1.26-2.74,2-4C1267,338.09,1268.66,335.79,1270.5,333.08Z" transform="translate(-369.75 -21.25)"/><path class="cls-7" d="M1189.21,550.79c.12,1.79.16,3.58.37,5.35.13,1.14.62,2.23.73,3.36a4.24,4.24,0,0,1-.29,2.73c-.54.7-1.72.93-2.62,1.36-.4-.91-1.23-1.88-1.13-2.73.38-3.32,1.06-6.61,1.62-9.91Z" transform="translate(-369.75 -21.25)"/><path d="M1227.06,382.81V369.35C1232,374.85,1228.92,378.81,1227.06,382.81Z" transform="translate(-369.75 -21.25)"/><path class="cls-7" d="M1174.94,445.75c-.61-2.85-1.23-5.69-2-9.23,4.3,2.11,4.52,2.86,3.44,8.91Z" transform="translate(-369.75 -21.25)"/></svg>